<svg xmlns="http://www.w3.org/2000/svg" viewBox="0 0 80 80"><defs><style>.cls-1{isolation:isolate;}.cls-2,.cls-5{fill:#eb6337;}.cls-3{fill:#fff;}.cls-4{fill:#f9ba67;}.cls-5{mix-blend-mode:multiply;opacity:0.15;}.cls-6{fill:none;stroke:#e10a17;stroke-miterlimit:10;stroke-width:0.42px;}.cls-7{fill:#2a6bb2;}</style></defs><g class="cls-1"><g id="Capa_1" data-name="Capa 1"><rect class="cls-2" width="80" height="80" rx="17.58"/><circle class="cls-3" cx="40" cy="40" r="34.84"/><path class="cls-4" d="M61.57,40a21.23,21.23,0,0,1-.16,2.66,21.57,21.57,0,0,1-42.82,0A23.31,23.31,0,0,1,18.43,40,21.49,21.49,0,0,1,24,25.5L25.51,24,40,9.53,54.5,24,56,25.5A21.49,21.49,0,0,1,61.57,40Z"/><path class="cls-5" d="M40,9.53v52A21.54,21.54,0,0,1,18.59,42.66,23.31,23.31,0,0,1,18.43,40,21.49,21.49,0,0,1,24,25.5L25.51,24Z"/><path class="cls-6" d="M30.63,27.58c0,.12,0,.25,0,.37v-.74C30.63,27.33,30.63,27.46,30.63,27.58Z"/><path class="cls-6" d="M40,50Z"/><path class="cls-6" d="M30.63,27.58c0,.12,0,.25,0,.37v-.74C30.63,27.33,30.63,27.46,30.63,27.58Z"/><line class="cls-6" x1="40" y1="50.03" x2="39.93" y2="50.03"/><path class="cls-7" d="M37.66,31.8h4.68V48.2H37.66Z"/><path class="cls-7" d="M57.66,53V42.34a8.28,8.28,0,0,0-8.29-8.2H44.69V45.86H48.2V53Z"/><path class="cls-7" d="M22.34,24.69H31.8V22.34h2.34V20H20v2.34h2.34Z"/><path class="cls-7" d="M57.66,55.31H48.2v2.35H45.86V60H60V57.66H57.66Z"/><path class="cls-7" d="M22.34,27V37.66a8.28,8.28,0,0,0,8.29,8.2h4.68V34.14H31.8V27Z"/></g></g></svg>