<svg id="Capa_1" data-name="Capa 1" xmlns="http://www.w3.org/2000/svg" xmlns:xlink="http://www.w3.org/1999/xlink" viewBox="0 0 120 120"><defs><style>.cls-1{fill:#eb6337;}.cls-2{fill:#fdead2;}.cls-3,.cls-6,.cls-8{fill:#fff;}.cls-4{fill:none;stroke:#e10a17;stroke-miterlimit:10;stroke-width:1.26px;}.cls-5{fill:#6cb0e1;}.cls-6{opacity:0.2;filter:url(#filter);}.cls-7{fill:#2a6bb2;}.cls-8{opacity:0.6;}</style><filter id="filter" x="45.29" y="46.82" width="29.83" height="29.83" filterUnits="userSpaceOnUse"><feOffset dx="-2.11" dy="6.33" input="SourceAlpha"/><feGaussianBlur result="blur"/><feFlood/><feComposite operator="in" in2="blur"/><feComposite in="SourceGraphic"/></filter></defs><rect class="cls-1" width="120" height="120" rx="26.37"/><path class="cls-2" d="M65.23,37.08l0,0h0Zm0,0,0,0h0Zm0,0,0,0h0Zm0,0,0,0h0Zm0,0,0,0h0Zm0,0,0,0h0Zm0,0,0,0h0Zm0,0,0,0h0Z"/><path class="cls-2" d="M65.28,37.12h0l0,0Z"/><path class="cls-2" d="M65.28,37.12h0l0,0Z"/><path class="cls-3" d="M112.27,60a52.2,52.2,0,1,1-7-26.14A52.21,52.21,0,0,1,112.27,60Z"/><path class="cls-2" d="M53.19,63.07c.07.15.14.3.22.44C53.33,63.37,53.26,63.22,53.19,63.07Zm13.28.66a6.82,6.82,0,0,0,.34-.66A6.82,6.82,0,0,1,66.47,63.73Zm.09-7.3.17.33C66.68,56.65,66.62,56.54,66.56,56.43Z"/><path class="cls-2" d="M53.19,63.07c.07.15.14.3.22.44C53.33,63.37,53.26,63.22,53.19,63.07Z"/><path class="cls-2" d="M66.81,63.07a6.82,6.82,0,0,1-.34.66A6.82,6.82,0,0,0,66.81,63.07Z"/><path class="cls-2" d="M66.73,56.76l-.17-.33C66.62,56.54,66.68,56.65,66.73,56.76Z"/><line class="cls-4" x1="60" y1="60" x2="60" y2="60"/><line class="cls-4" x1="60" y1="60" x2="60" y2="60"/><line class="cls-4" x1="60" y1="60" x2="60" y2="60"/><path class="cls-5" d="M92.36,60a32.36,32.36,0,0,1-64.47,4,32.88,32.88,0,0,1-.24-4A32.2,32.2,0,0,1,36,38.26L38.26,36,60,14.3,81.74,36,84,38.26A32.21,32.21,0,0,1,92.36,60Z"/><path class="cls-5" d="M60.2,41.82A19.92,19.92,0,0,1,76,73.83L90.83,85.91l.78.64A5,5,0,1,1,84.08,93h0l-12-15.31A19.91,19.91,0,1,1,60.2,41.82m0,34.83a14.85,14.85,0,0,0,10.44-4.27l.09-.08,0,0A14.91,14.91,0,1,0,60.2,76.65m0-38.58a23.66,23.66,0,1,0,11,44.61L81.11,95.3A8.72,8.72,0,1,0,94.26,83.9l-.13-.13L94,83.65,93.2,83,81,73.05a24.44,24.44,0,0,0,1.58-3.59A23.65,23.65,0,0,0,60.2,38.07Zm0,34.83a11.18,11.18,0,1,1,7.89-3.27v0l0,0h0v0A11.1,11.1,0,0,1,60.2,72.9Z"/><path class="cls-6" d="M75.12,61.73a14.87,14.87,0,0,1-4.37,10.55l0,0-.09.08a14.91,14.91,0,1,1,4.48-10.65Z"/><path class="cls-7" d="M60,14.3V92.35A32.31,32.31,0,0,1,27.89,64a32.88,32.88,0,0,1-.24-4A32.2,32.2,0,0,1,36,38.26L38.26,36Z"/><path class="cls-3" d="M91.61,86.55l-.78-.64L76,73.83a19.88,19.88,0,1,0-3.93,3.88L84.08,93h0a5,5,0,1,0,7.53-6.47ZM70.75,72.28l0,0-.09.08a13.55,13.55,0,1,1,.11-.1Z"/><path class="cls-8" d="M75.12,61.73a14.87,14.87,0,0,1-4.37,10.55l0,0-.09.08a14.91,14.91,0,1,1,4.48-10.65Z"/></svg>