<svg xmlns="http://www.w3.org/2000/svg" viewBox="0 0 80 80"><defs><style>.cls-1{isolation:isolate;}.cls-2{fill:#2a6bb2;}.cls-3{fill:#5e9ed6;}.cls-4{fill:#c6e4f8;}.cls-5{fill:#4381c2;mix-blend-mode:multiply;opacity:0.3;}.cls-6{fill:#f5a017;}</style></defs><g class="cls-1"><g id="Capa_1" data-name="Capa 1"><rect class="cls-2" width="80" height="80" rx="17.58"/><path class="cls-3" d="M58.08,10.21A34.37,34.37,0,0,0,44.13,5.4a34.88,34.88,0,0,0-36.3,48,35.23,35.23,0,0,0,2.38,4.66,34.86,34.86,0,0,0,59.59,0,36.42,36.42,0,0,0,2.37-4.66A34.91,34.91,0,0,0,58.08,10.21Z"/><path class="cls-4" d="M61.57,40a21.23,21.23,0,0,1-.16,2.66,21.57,21.57,0,0,1-42.82,0A23.31,23.31,0,0,1,18.43,40,21.49,21.49,0,0,1,24,25.5l16-16,9.38,9.38L54.5,24,56,25.5A21.49,21.49,0,0,1,61.57,40Z"/><path class="cls-5" d="M40,9.53v52A21.54,21.54,0,0,1,18.6,42.65,21.23,21.23,0,0,1,18.44,40,21.46,21.46,0,0,1,24,25.5Z"/><polygon class="cls-6" points="59.28 41.91 47.17 54.02 47.17 54.01 44.03 50.88 45.82 49.08 56.14 38.77 59.28 41.91"/><polygon class="cls-6" points="41.23 23.86 39.44 25.66 29.12 35.97 25.98 32.83 38.09 20.71 38.09 20.72 41.23 23.86"/><polygon class="cls-6" points="55.03 38.77 45.58 48.21 44.03 49.77 30.23 35.97 39.67 26.53 41.23 24.97 55.03 38.77"/><path class="cls-6" d="M33.88,40.73l5.39,5.39-1.78,1.79L33.7,51.69,18.2,67.19a35.72,35.72,0,0,1-2.84-2.55,34.17,34.17,0,0,1-2.55-2.85l9.48-9.47,6-6,.62-.62,3.16-3.17Z"/></g></g></svg>