<?xml version="1.0" encoding="UTF-8"?><svg xmlns="http://www.w3.org/2000/svg" xmlns:xlink="http://www.w3.org/1999/xlink" viewBox="0 0 80 80"><defs><style>.f{fill:#f9ba67;}.g{fill:#fff;}.h{fill:#2a6bb2;}.i{filter:url(#b);}.i,.j{fill:#eb6337;}.j{mix-blend-mode:multiply;opacity:.15;}.k{filter:url(#d);}.l{fill:none;stroke:#e10a17;stroke-miterlimit:10;stroke-width:.42px;}.m{isolation:isolate;}</style><filter id="b" filterUnits="userSpaceOnUse"><feOffset dx="0" dy="4.22"/><feGaussianBlur result="c" stdDeviation="10.55"/><feFlood flood-color="#000" flood-opacity=".15"/><feComposite in2="c" operator="in"/><feComposite in="SourceGraphic"/></filter><filter id="d" filterUnits="userSpaceOnUse"><feOffset dx="0" dy="6.33"/><feGaussianBlur result="e" stdDeviation="0"/><feFlood flood-color="#000" flood-opacity=".1"/><feComposite in2="e" operator="in"/><feComposite in="SourceGraphic"/></filter></defs><g class="m"><g id="a"><g><rect class="i" x="0" width="80" height="80" rx="17.58" ry="17.58"/><circle class="g" cx="40" cy="40" r="34.84"/><path class="f" d="M61.57,40c0,.9-.05,1.79-.16,2.66-.24,1.95-.74,3.82-1.46,5.57-3.23,7.83-10.95,13.34-19.95,13.34s-16.71-5.51-19.95-13.34c-.72-1.75-1.22-3.62-1.46-5.57-.11-.87-.16-1.76-.16-2.66,0-5.58,2.12-10.67,5.6-14.5l1.48-1.48,14.5-14.5,14.5,14.5,1.48,1.48c3.48,3.83,5.6,8.91,5.6,14.5Z"/><path class="j" d="M40,9.53V61.57c-9,0-16.71-5.51-19.95-13.34-.72-1.75-1.22-3.62-1.46-5.57-.11-.87-.16-1.76-.16-2.66,0-5.58,2.12-10.67,5.6-14.5l1.48-1.48,14.49-14.49Z"/><path class="l" d="M30.63,27.58c0,.12,0,.25,0,.37v-.74c0,.12,0,.25,0,.37Z"/><path class="l" d="M40,50.03h-.07s.05,0,.07,0Z"/><path class="l" d="M30.63,27.58c0,.12,0,.25,0,.37v-.74c0,.12,0,.25,0,.37Z"/><line class="l" x1="40" y1="50.03" x2="39.93" y2="50.03"/><g class="k"><path class="h" d="M37.66,31.8h4.69v16.41h-4.69V31.8Z"/><path class="h" d="M57.66,52.97v-10.62c0-4.52-3.76-8.2-8.28-8.2h-4.69v11.72h3.52v7.11h9.45Z"/><path class="h" d="M22.34,24.69h9.45v-2.34h2.34v-2.34h-14.14v2.34h2.34v2.34Z"/><path class="h" d="M57.66,55.31h-9.45v2.34h-2.34v2.34h14.14v-2.34h-2.34v-2.34Z"/><path class="h" d="M22.34,27.03v10.62c0,4.52,3.76,8.2,8.28,8.2h4.69v-11.72h-3.52v-7.11h-9.45Z"/></g></g></g></g></svg>