<?xml version="1.0" encoding="UTF-8"?><svg xmlns="http://www.w3.org/2000/svg" xmlns:xlink="http://www.w3.org/1999/xlink" viewBox="0 0 80 80"><defs><style>.e{fill:url(#d);}.f{stroke:#e10a17;}.f,.g{fill:none;stroke-miterlimit:10;stroke-width:.05px;}.g{stroke:#39a7df;}.h{fill:#f9ba67;}.i{fill:#fff;}.j{fill:#c6e4f8;}.k{fill:#2a6bb2;}.l{fill:#5e9ed6;}.m{filter:url(#b);}.n{opacity:.1;}.n,.o{mix-blend-mode:multiply;}.o{fill:#4381c2;opacity:.3;}.p{isolation:isolate;}</style><filter id="b" filterUnits="userSpaceOnUse"><feOffset dx="0" dy=".79"/><feGaussianBlur result="c" stdDeviation="0"/><feFlood flood-color="#000" flood-opacity=".1"/><feComposite in2="c" operator="in"/><feComposite in="SourceGraphic"/></filter><linearGradient id="d" x1="14.35" y1="53.34" x2="39.55" y2="35.22" gradientTransform="matrix(1, 0, 0, 1, 0, 0)" gradientUnits="userSpaceOnUse"><stop offset=".9" stop-color="#000"/><stop offset=".91" stop-color="#030303"/><stop offset=".92" stop-color="#0f0f0f"/><stop offset=".94" stop-color="#232323"/><stop offset=".95" stop-color="#3e3e3e"/><stop offset=".96" stop-color="#616161"/><stop offset=".97" stop-color="#8d8d8d"/><stop offset=".99" stop-color="silver"/><stop offset="1" stop-color="#fafafa"/><stop offset="1" stop-color="#fff"/></linearGradient></defs><g class="p"><g id="a"><g><rect class="k" x="0" width="80" height="80" rx="17.58" ry="17.58"/><circle class="l" cx="40" cy="40" r="34.84"/><line class="f" x1="40" y1="18.26" x2="39.93" y2="18.28"/><line class="f" x1="40" y1="18.31" x2="40" y2="18.26"/><polygon class="g" points="40.01 45.29 40 45.3 40 45.29 40.01 45.29"/><path class="j" d="M61.57,40c0,.9-.05,1.79-.16,2.66-.24,1.95-.74,3.82-1.46,5.57-3.23,7.83-10.95,13.34-19.95,13.34h0c-9,0-16.71-5.51-19.95-13.34-.72-1.75-1.22-3.62-1.46-5.57-.11-.87-.16-1.76-.16-2.66,0-5.58,2.12-10.67,5.6-14.5l15.97-15.97,15.97,15.97c3.48,3.83,5.6,8.91,5.6,14.5Z"/><path class="o" d="M40,9.53V61.57c-9,0-16.71-5.51-19.95-13.34-.72-1.75-1.22-3.62-1.46-5.57-.11-.87-.16-1.76-.16-2.66,0-5.58,2.12-10.67,5.6-14.5l15.97-15.97Z"/><g class="m"><g><line class="i" x1="40.32" y1="23.93" x2="40.28" y2="23.95"/><polygon class="i" points="40.32 23.93 40.32 23.96 40.28 23.95 40.32 23.93"/><path class="i" d="M53.68,37.99v9.78c-3.67,2.9-8.31,4.63-13.36,4.63s-9.68-1.73-13.35-4.63v-2.27c.14-.27,.26-.55,.35-.84,.04-.12,.07-.24,.1-.36,.09-.38,.14-.78,.14-1.19,0-.86-.21-1.67-.59-2.39v-2.73l4.93,1.79,2.04,.74,3.39,1.23,3,1.09h0l3-1.09,10.35-3.77Z"/><polygon class="i" points="63.28 32.32 61.8 32.85 53.68 35.81 40.33 40.67 40.32 40.67 33.78 38.28 31.64 37.51 28.88 36.5 26.04 35.47 24.17 34.79 24.05 34.74 23.72 34.62 21.66 33.87 18.84 32.85 17.33 32.3 18.77 31.78 21.66 30.72 23.72 29.97 26.97 28.79 40.28 23.95 40.32 23.96 47 26.39 48.79 27.04 51.82 28.15 53.68 28.82 61.87 31.8 63.28 32.32"/></g></g><g><g class="n"><path class="e" d="M40.66,33.38h0l-11.03,4.02-.75,.27-1.57,.57c-.14,.04-.28,.09-.41,.15-.76,.31-1.43,.8-1.95,1.42-.68,.79-1.11,1.8-1.21,2.9,.45,.38,.74,.94,.74,1.58,0,.37-.1,.73-.28,1.03-.11,.2-.26,.37-.43,.52-.02,.01-.03,.03-.05,.04v.13c.16,.58,.27,1.18,.35,1.8h0c.05,.43,.09,.87,.1,1.31,0,.11,0,.23,0,.34,0,1.19-.16,2.35-.45,3.45-.39,1.47-1.03,2.84-1.86,4.06-.29,.05-.59,.08-.89,.08-1.71,0-3.22-.83-4.15-2.12,1.86-1.48,3.31-3.44,4.17-5.7,.29-.77,.52-1.58,.66-2.41h0v-.62c-.76-.3-1.29-1.04-1.29-1.91s.54-1.61,1.29-1.91c.01,0,.02-.01,.04-.01h0c-.03-.22-.04-.45-.04-.68v-.02c0-.06,0-.12,0-.18h0s0-.07,0-.1c0-.03,0-.06,0-.09,0-.03,0-.06,0-.09,0-.04,0-.07,.01-.1,0-.03,0-.05,0-.08,0-.02,0-.04,0-.05v-.05c.01-.05,.02-.1,.03-.16,.02-.09,.04-.19,.06-.28l.02-.06s.02-.07,.03-.1c0-.03,.02-.07,.03-.1,.11-.38,.26-.73,.45-1.07,.35-.62,.83-1.16,1.39-1.58,.4-.3,.84-.54,1.31-.71h0l.81-.3,14.1-5.13h0c.11-.04,.23-.05,.36-.05,.57,0,1.03,.46,1.03,1.03,0,.44-.28,.82-.67,.96Z"/></g><path class="h" d="M40.66,32.21h0l-11.03,4.02-.75,.27-1.57,.57c-.14,.04-.28,.09-.41,.15-.76,.31-1.43,.8-1.95,1.42-.68,.79-1.11,1.8-1.21,2.9,.45,.38,.74,.94,.74,1.58,0,.37-.1,.73-.28,1.03-.11,.2-.26,.37-.43,.52-.02,.01-.03,.03-.05,.04v.13c.16,.58,.27,1.18,.35,1.8h0c.05,.43,.09,.87,.1,1.31,0,.11,0,.23,0,.34,0,1.19-.16,2.35-.45,3.45-.39,1.47-1.03,2.84-1.86,4.06-.29,.05-.59,.08-.89,.08-1.71,0-3.22-.83-4.15-2.12,1.86-1.48,3.31-3.44,4.17-5.7,.29-.77,.52-1.58,.66-2.41h0v-.62c-.76-.3-1.29-1.04-1.29-1.91s.54-1.61,1.29-1.91c.01,0,.02-.01,.04-.01h0c-.03-.22-.04-.45-.04-.68v-.02c0-.06,0-.12,0-.18h0s0-.07,0-.1c0-.03,0-.06,0-.09,0-.03,0-.06,0-.09,0-.04,0-.07,.01-.1,0-.03,0-.05,0-.08,0-.02,0-.04,0-.05v-.05c.01-.05,.02-.1,.03-.16,.02-.09,.04-.19,.06-.28l.02-.06s.02-.07,.03-.1c0-.03,.02-.07,.03-.1,.11-.38,.26-.73,.45-1.07,.35-.62,.83-1.16,1.39-1.58,.4-.3,.84-.54,1.31-.71h0l.81-.3,14.1-5.13h0c.11-.04,.23-.05,.36-.05,.57,0,1.03,.46,1.03,1.03,0,.44-.28,.82-.67,.96Z"/></g></g></g></g></svg>