<?xml version="1.0" encoding="UTF-8"?><svg xmlns="http://www.w3.org/2000/svg" viewBox="0 0 80 80"><defs><style>.b{fill:#f7a93f;}.c{fill:#eb6337;}.d{fill:#fff;}.e{fill:#e5342a;}.f{fill:#91c046;}.g{fill:#6cb0e1;}.h{fill:#2a6bb2;}.i{isolation:isolate;}.j{mix-blend-mode:multiply;opacity:.15;}</style></defs><g class="i"><g id="a"><g><rect class="h" x="0" y="0" width="80" height="80" rx="17.58" ry="17.58"/><path class="g" d="M53.38,7.84c-4.13-1.73-8.67-2.68-13.43-2.68s-9.24,.94-13.36,2.65C13.98,13.05,5.1,25.49,5.1,40c0,19.24,15.6,34.84,34.84,34.84s34.84-15.6,34.84-34.84c0-14.48-8.84-26.9-21.41-32.16Zm-13.43,53.73c-11.91,0-21.57-9.66-21.57-21.57,0-11.04,8.29-20.14,18.99-21.42,.85-.1,1.71-.15,2.58-.15s1.8,.06,2.67,.16c10.65,1.32,18.9,10.4,18.9,21.41,0,11.91-9.66,21.57-21.57,21.57Z"/><circle class="d" cx="40" cy="40" r="21.57"/><path class="g" d="M53.29,40.05c0,.55-.03,1.1-.1,1.64-.15,1.2-.45,2.35-.9,3.43-1.99,4.82-6.74,8.21-12.27,8.21s-10.28-3.39-12.27-8.21c-.45-1.08-.75-2.23-.9-3.43-.07-.54-.1-1.08-.1-1.64,0-3.43,1.3-6.56,3.44-8.92l.91-.91,8.92-8.92,8.92,8.92,.91,.91c2.14,2.36,3.44,5.49,3.44,8.92Z"/><path class="h" d="M53.23,41.3c-.01,.13-.03,.25-.04,.38-.15,1.2-.45,2.35-.9,3.43-1.99,4.82-6.74,8.21-12.27,8.21s-10.28-3.39-12.28-8.21c-.33-.81-.59-1.66-.76-2.55l1.15-1.55,19,5.09,6.1-4.8Z"/><g><g class="j"><polygon points="17.14 56.55 14.5 54.6 26.43 38.43 46 43.68 64.04 29.49 66.07 32.07 46.74 47.28 27.74 42.18 17.14 56.55"/><circle cx="15.82" cy="55.58" r="4.53"/><circle cx="15.82" cy="55.58" r="2.26"/><circle cx="27.08" cy="40.31" r="4.53"/><circle cx="27.08" cy="40.31" r="2.26"/><circle cx="46.37" cy="45.48" r="4.53"/><circle cx="46.37" cy="45.48" r="2.26"/><circle cx="65.06" cy="30.78" r="4.53"/><circle cx="65.06" cy="30.78" r="2.26"/></g><g><polygon class="d" points="17.53 55.38 14.89 53.43 26.82 37.26 46.39 42.51 64.43 28.32 66.46 30.9 47.13 46.1 28.13 41.01 17.53 55.38"/><g><circle class="d" cx="16.21" cy="54.4" r="4.53"/><circle class="e" cx="16.21" cy="54.4" r="2.26"/></g><g><circle class="d" cx="27.47" cy="39.14" r="4.53"/><circle class="b" cx="27.47" cy="39.14" r="2.26"/></g><g><circle class="d" cx="46.76" cy="44.31" r="4.53"/><circle class="c" cx="46.76" cy="44.31" r="2.26"/></g><g><circle class="d" cx="65.45" cy="29.61" r="4.53"/><circle class="f" cx="65.45" cy="29.61" r="2.26"/></g></g></g></g></g></g></svg>