<?xml version="1.0" encoding="UTF-8"?><svg id="a" xmlns="http://www.w3.org/2000/svg" xmlns:xlink="http://www.w3.org/1999/xlink" viewBox="0 0 80 80"><defs><style>.c{fill:url(#b);}.d{fill:#659cd4;}.e{fill:#91c046;}.f{fill:#8db7e2;}.g{fill:#e0eef6;}.h{fill:#1e538a;}.i{fill:#4080c2;}.j{fill:#6cb0e1;}.k{fill:#2a6bb2;}</style><linearGradient id="b" x1="21.57" y1="43.54" x2="40.58" y2="43.54" gradientTransform="matrix(1, 0, 0, 1, 0, 0)" gradientUnits="userSpaceOnUse"><stop offset=".62" stop-color="#91c046"/><stop offset="1" stop-color="#77ac2f"/></linearGradient></defs><rect class="h" width="80" height="80" rx="17.58" ry="17.58"/><path class="f" d="M40.05,61.57v13.27h-.05c-9.61,0-18.31-3.89-24.61-10.18-6.32-6.31-10.23-15.03-10.23-24.66h13.27c0,5.97,2.43,11.37,6.34,15.28,3.9,3.89,9.28,6.29,15.23,6.29h.05Z"/><path class="d" d="M24.77,24.72c-3.92,3.91-6.34,9.31-6.34,15.28H5.16c0-9.63,3.91-18.36,10.23-24.66l9.39,9.39Z"/><path class="k" d="M74.84,40h-13.27c0-5.94-2.4-11.33-6.29-15.23-3.32-3.33-7.71-5.58-12.62-6.18-.85-.1-1.72-.16-2.61-.16V5.16c4.74,0,9.25,.96,13.37,2.68,4.24,1.77,8.05,4.35,11.25,7.55,6.29,6.3,10.18,15,10.18,24.61Z"/><path class="i" d="M74.84,40c0,9.61-3.89,18.31-10.18,24.61l-9.39-9.39c3.89-3.9,6.29-9.28,6.29-15.23h13.27Z"/><path class="d" d="M64.66,64.61c-6.3,6.31-15,10.22-24.61,10.23v-13.27c5.95-.01,11.33-2.44,15.23-6.34l9.39,9.39Z"/><path class="i" d="M40.05,5.16v13.27h-.05c-.9,0-1.79,.06-2.66,.16-4.88,.6-9.26,2.83-12.57,6.13L15.39,15.34c3.18-3.18,6.98-5.74,11.2-7.5,4.13-1.73,8.66-2.68,13.42-2.68h.05Z"/><g><path class="j" d="M40.05,40v13.27h-.05c-3.65,0-6.96-1.47-9.36-3.86l9.41-9.41Z"/><path class="j" d="M53.27,40c0,3.65-1.48,6.96-3.86,9.36l-9.36-9.36h13.22Z"/><polygon class="j" points="49.4 30.65 40.05 40 40.05 40 40.05 21.3 49.4 30.65"/><polygon class="j" points="40.05 21.3 40.05 40 30.65 30.6 31.08 30.17 40 21.25 40.05 21.3"/><path class="j" d="M40.05,40h-13.32c0-3.43,1.3-6.56,3.44-8.92l.48-.48,9.4,9.4Z"/><path class="j" d="M40.05,40l-9.41,9.41c-2.42-2.4-3.91-5.73-3.91-9.41h13.32Z"/><path class="j" d="M53.27,40h-13.22l9.35-9.35,.43,.43c2.14,2.36,3.44,5.49,3.44,8.92Z"/><path class="j" d="M49.41,49.36c-2.39,2.41-5.7,3.9-9.36,3.91v-13.27h0l9.36,9.36Z"/></g><circle class="g" cx="39.95" cy="40" r="21.57"/><path class="f" d="M53.19,41.47c-.73,6.64-6.36,11.8-13.19,11.8s-12.46-5.16-13.19-11.8c-.05-.48-.08-.98-.08-1.47,0-3.43,1.3-6.56,3.44-8.92,.29-.32,.6-.63,.91-.91l8.92-8.92,8.93,8.92c.31,.29,.61,.59,.9,.9,2.14,2.36,3.45,5.49,3.45,8.92,0,.5-.03,.99-.08,1.47Z"/><path class="i" d="M40,21.25V53.27c-6.83,0-12.46-5.16-13.19-11.8-.05-.48-.08-.98-.08-1.47,0-3.43,1.3-6.56,3.44-8.92,.29-.32,.6-.63,.91-.91l8.92-8.92Z"/><g><path class="e" d="M66.94,23.14l-2.06,2.45-1.92,2.29-.47,.56-7.24,8.9-.15,.18-.86,1.02-.3,.35-6.91,8.23-1.1,1.31-5.37,6.4c-1.29-1.8-2.05-4.01-2.05-6.39,0-1.27,.22-2.49,.61-3.62,.35-1,.84-1.93,1.45-2.78,.01-.02,.02-.03,.04-.05l.98-1.17,1.61-1.92,1.4-1.67,2.42-2.89,.85-1.02,.86-1.03,1.06-1.27,5.83-7.22,.43-.51h0v-.02l.51-.59h0c.24-.25,.49-.49,.77-.7h0c1.06-.83,2.36-1.35,3.78-1.44h.89c.23,.01,.46,.04,.69,.08,1.71,.28,3.2,1.2,4.24,2.5Z"/><path class="c" d="M38.52,48.44c0,2.38,.76,4.59,2.05,6.39h0l-5.37-6.39-1.12-1.34-7.21-8.59-1-1.19-4.3-5.09h10.75l1.79,2.09,2.48,2.95,1.34,1.59,2.66,3.17h0c-.61,.85-1.1,1.78-1.45,2.78-.4,1.13-.61,2.35-.61,3.62Z"/></g></svg>