<?xml version="1.0" encoding="UTF-8"?><svg xmlns="http://www.w3.org/2000/svg" viewBox="0 0 80 80"><defs><style>.b{opacity:.1;}.c{fill:#f5a017;}.d{fill:#c6e4f8;}.e{fill:#2a6bb2;}.f{fill:#5e9ed6;}.g{fill:#4381c2;mix-blend-mode:multiply;opacity:.3;}.h{isolation:isolate;}</style></defs><g class="h"><g id="a"><g><rect class="e" x="0" y="0" width="80" height="80" rx="17.58" ry="17.58"/><path class="f" d="M58.08,10.21c-1.48-.9-3.04-1.7-4.66-2.37-2.91-1.22-6.03-2.05-9.28-2.43-1.35-.16-2.73-.24-4.13-.24s-2.78,.08-4.13,.24c-3.25,.38-6.37,1.22-9.28,2.43-1.62,.68-3.18,1.47-4.66,2.37C11.87,16.32,5.16,27.37,5.16,40c0,1.4,.08,2.78,.24,4.13,.38,3.25,1.22,6.37,2.43,9.28,.68,1.62,1.47,3.18,2.37,4.66,6.11,10.05,17.17,16.77,29.79,16.77s23.68-6.71,29.79-16.77c.9-1.48,1.7-3.04,2.37-4.66,1.22-2.91,2.05-6.03,2.43-9.28,.16-1.35,.24-2.73,.24-4.13,0-12.62-6.71-23.68-16.77-29.79Z"/><g><path class="d" d="M61.57,40c0,.9-.05,1.79-.16,2.66-.24,1.95-.74,3.82-1.46,5.57-3.23,7.83-10.95,13.34-19.95,13.34s-16.71-5.51-19.95-13.34c-.72-1.75-1.22-3.62-1.46-5.57-.11-.87-.16-1.76-.16-2.66,0-5.58,2.12-10.67,5.6-14.5l15.97-15.97,9.38,9.38,5.12,5.12,1.48,1.48c3.48,3.83,5.6,8.91,5.6,14.5Z"/><path class="g" d="M40.01,9.53V61.56c-9,0-16.71-5.51-19.95-13.34-.72-1.75-1.22-3.62-1.46-5.57-.11-.87-.16-1.76-.16-2.66,0-5.58,2.12-10.67,5.6-14.5l15.97-15.97Z"/></g><g class="b"><g><polygon points="59.29 42.91 47.18 55.02 47.17 55.01 44.03 51.88 45.82 50.08 56.14 39.76 59.29 42.91"/><polygon points="41.24 24.86 39.44 26.66 29.12 36.97 25.98 33.82 38.09 21.71 38.09 21.72 41.24 24.86"/><polygon points="55.03 39.76 45.58 49.21 44.03 50.77 30.23 36.97 39.68 27.53 41.24 25.97 55.03 39.76"/><path d="M33.88,41.73l5.39,5.39-1.79,1.79-3.78,3.78-15.5,15.5c-.98-.79-1.93-1.64-2.84-2.55-.91-.91-1.76-1.86-2.55-2.84l9.48-9.48,6.02-6.02,.62-.62,3.16-3.16,1.79-1.79Z"/></g></g><g><polygon class="c" points="59.29 41.91 47.18 54.02 47.17 54.01 44.03 50.88 45.82 49.08 56.14 38.76 59.29 41.91"/><polygon class="c" points="41.24 23.86 39.44 25.66 29.12 35.97 25.98 32.82 38.09 20.71 38.09 20.72 41.24 23.86"/><polygon class="c" points="55.03 38.76 45.58 48.21 44.03 49.77 30.23 35.97 39.68 26.53 41.24 24.97 55.03 38.76"/><path class="c" d="M33.88,40.73l5.39,5.39-1.79,1.79-3.78,3.78-15.5,15.5c-.98-.79-1.93-1.64-2.84-2.55-.91-.91-1.76-1.86-2.55-2.84l9.48-9.48,6.02-6.02,.62-.62,3.16-3.16,1.79-1.79Z"/></g></g></g></g></svg>