<?xml version="1.0" encoding="UTF-8"?><svg id="a" xmlns="http://www.w3.org/2000/svg" xmlns:xlink="http://www.w3.org/1999/xlink" viewBox="0 0 80 80"><defs><style>.j,.k,.l,.m{fill:#fff;}.n{fill:#fdead2;}.o{fill:#6cb0e1;}.p{fill:#2a6bb2;}.k{filter:url(#f);}.q{fill:#eb6337;filter:url(#b);}.r{fill:none;stroke:#e10a17;stroke-miterlimit:10;stroke-width:1.26px;}.l{filter:url(#h);opacity:.6;}.m{filter:url(#d);opacity:.2;}</style><filter id="b" filterUnits="userSpaceOnUse"><feOffset dx="0" dy="4.22"/><feGaussianBlur result="c" stdDeviation="10.55"/><feFlood flood-color="#000" flood-opacity=".15"/><feComposite in2="c" operator="in"/><feComposite in="SourceGraphic"/></filter><filter id="d" filterUnits="userSpaceOnUse"><feOffset dx="-2.11" dy="6.33"/><feGaussianBlur result="e" stdDeviation="0"/><feFlood flood-color="#000" flood-opacity=".15"/><feComposite in2="e" operator="in"/><feComposite in="SourceGraphic"/></filter><filter id="f" filterUnits="userSpaceOnUse"><feOffset dx="2.11" dy="6.33"/><feGaussianBlur result="g" stdDeviation="0"/><feFlood flood-color="#000" flood-opacity=".15"/><feComposite in2="g" operator="in"/><feComposite in="SourceGraphic"/></filter><filter id="h" filterUnits="userSpaceOnUse"><feOffset dx="2.11" dy="6.33"/><feGaussianBlur result="i" stdDeviation="0"/><feFlood flood-color="#000" flood-opacity=".15"/><feComposite in2="i" operator="in"/><feComposite in="SourceGraphic"/></filter></defs><g><g><rect class="q" x="0" width="80" height="80" rx="17.58" ry="17.58"/><path class="n" d="M43.49,24.72l.03,.03h0l-.03-.03Zm0,0l.03,.03h0l-.03-.03Zm0,0l.03,.03h0l-.03-.03Zm0,0l.03,.03h0l-.03-.03Zm0,0l.03,.03h0l-.03-.03Zm0,0l.03,.03h0l-.03-.03Zm0,0l.03,.03h0l-.03-.03Zm0,0l.03,.03h0l-.03-.03Z"/><path class="n" d="M43.52,24.75h0l-.03-.03,.03,.03Z"/><path class="n" d="M43.52,24.75h0l-.03-.03,.03,.03Z"/><path class="j" d="M74.84,40c0,6.03-1.55,12.05-4.66,17.43-1.49,2.58-3.34,5.01-5.55,7.21-13.61,13.61-35.67,13.61-49.28,0-2.21-2.21-4.05-4.63-5.54-7.21-3.11-5.37-4.66-11.4-4.66-17.43s1.55-12.05,4.66-17.43c1.49-2.58,3.34-5.01,5.54-7.21,3.32-3.32,7.15-5.84,11.24-7.53,2.99-1.25,6.13-2.06,9.3-2.43,2.72-.32,5.48-.32,8.2,0,3.17,.37,6.31,1.18,9.3,2.43,4.09,1.7,7.91,4.21,11.24,7.53,2.21,2.21,4.05,4.63,5.54,7.21,3.11,5.37,4.66,11.4,4.66,17.43Z"/><path class="n" d="M35.46,42.05c.04,.1,.09,.2,.14,.29-.05-.1-.1-.19-.14-.29Zm8.85,.44c.08-.14,.16-.29,.23-.44-.07,.15-.14,.3-.23,.44Zm.06-4.87c.04,.07,.08,.15,.11,.22-.04-.07-.07-.15-.11-.22Z"/><path class="n" d="M35.46,42.05c.04,.1,.09,.2,.14,.29-.05-.1-.1-.19-.14-.29Z"/><path class="n" d="M44.54,42.05c-.07,.15-.14,.3-.23,.44,.08-.14,.16-.29,.23-.44Z"/><path class="n" d="M44.49,37.84c-.04-.07-.07-.15-.11-.22,.04,.07,.08,.15,.11,.22Z"/><line class="r" x1="40" y1="40" x2="40" y2="40"/><line class="r" x1="40" y1="40" x2="40" y2="40"/><line class="r" x1="40" y1="40" x2="40" y2="40"/></g><path class="o" d="M61.57,40c0,.9-.05,1.79-.16,2.66-.24,1.95-.74,3.82-1.46,5.57-3.23,7.83-10.95,13.34-19.95,13.34s-16.71-5.51-19.95-13.34c-.72-1.75-1.22-3.62-1.46-5.57-.11-.87-.16-1.76-.16-2.66,0-5.58,2.12-10.67,5.6-14.5l1.48-1.48,14.5-14.5,14.5,14.5,1.48,1.48c3.48,3.83,5.6,8.91,5.6,14.5Z"/><path class="o" d="M40.13,27.88c7.33,0,13.27,5.94,13.27,13.27,0,3.03-1.02,5.83-2.73,8.07l9.87,8.05,.52,.43c.6,.6,.97,1.43,.97,2.35,0,1.83-1.49,3.32-3.32,3.32-1.1,0-2.07-.53-2.67-1.35h0l-8-10.21c-2.21,1.65-4.95,2.62-7.92,2.62-7.33,0-13.27-5.94-13.27-13.27s5.94-13.27,13.27-13.27m0,23.22c2.71,0,5.17-1.09,6.96-2.84,.02-.02,.04-.04,.06-.06h.01c1.8-1.81,2.91-4.3,2.91-7.04,0-5.49-4.45-9.94-9.94-9.94s-9.94,4.45-9.94,9.94,4.45,9.94,9.94,9.94m0-25.72c-2.13,0-4.19,.42-6.14,1.24-1.88,.79-3.57,1.93-5.01,3.38-1.45,1.45-2.58,3.13-3.38,5.01-.82,1.95-1.24,4.01-1.24,6.14s.42,4.19,1.24,6.14c.79,1.88,1.93,3.57,3.38,5.01,1.45,1.45,3.13,2.58,5.01,3.38,1.95,.82,4.01,1.24,6.14,1.24,2.59,0,5.09-.62,7.34-1.81l6.59,8.42c1.09,1.46,2.83,2.33,4.66,2.33,3.21,0,5.82-2.61,5.82-5.82,0-1.56-.61-3.02-1.71-4.12l-.09-.09-.1-.08-.52-.43-8.14-6.64c.42-.77,.77-1.57,1.06-2.39,.57-1.65,.86-3.39,.86-5.15,0-2.13-.42-4.19-1.24-6.14-.79-1.88-1.93-3.57-3.38-5.01s-3.13-2.58-5.01-3.38c-1.95-.82-4.01-1.24-6.14-1.24h0Zm0,23.22c-4.1,0-7.44-3.34-7.44-7.44s3.34-7.44,7.44-7.44,7.44,3.34,7.44,7.44c0,1.99-.77,3.86-2.18,5.26h-.01l-.02,.03h-.01v.02c-1.41,1.37-3.26,2.13-5.22,2.13h0Z"/><path class="m" d="M50.08,41.16c0,2.75-1.11,5.23-2.91,7.03h-.01s-.04,.05-.06,.07c-1.79,1.76-4.25,2.84-6.96,2.84-5.49,0-9.94-4.45-9.94-9.94s4.45-9.94,9.94-9.94,9.94,4.45,9.94,9.94Z"/><path class="p" d="M40,9.53V61.57c-9,0-16.71-5.51-19.95-13.34-.72-1.75-1.22-3.62-1.46-5.57-.11-.87-.16-1.76-.16-2.66,0-5.58,2.12-10.67,5.6-14.5l1.48-1.48,14.49-14.49Z"/><path class="k" d="M61.07,57.7l-.52-.43-9.87-8.05c1.71-2.24,2.73-5.03,2.73-8.07,0-7.33-5.94-13.27-13.27-13.27s-13.27,5.94-13.27,13.27,5.94,13.27,13.27,13.27c2.97,0,5.71-.98,7.92-2.62l8,10.21h0c.6,.82,1.58,1.35,2.67,1.35,1.83,0,3.32-1.49,3.32-3.32,0-.92-.37-1.75-.97-2.35Zm-13.91-9.51h-.01s-.04,.05-.06,.07c-1.79,1.76-4.25,2.84-6.96,2.84-5.49,0-9.94-4.45-9.94-9.94s4.45-9.94,9.94-9.94,9.94,4.45,9.94,9.94c0,2.75-1.11,5.23-2.91,7.03Z"/></g><path class="l" d="M50.08,41.16c0,2.75-1.11,5.23-2.91,7.03h-.01s-.04,.05-.06,.07c-1.79,1.76-4.25,2.84-6.96,2.84-5.49,0-9.94-4.45-9.94-9.94s4.45-9.94,9.94-9.94,9.94,4.45,9.94,9.94Z"/></svg>