<?xml version="1.0" encoding="UTF-8"?>
<svg width="400px" height="400px" viewBox="0 0 400 400" version="1.1" xmlns="http://www.w3.org/2000/svg" xmlns:xlink="http://www.w3.org/1999/xlink">
    <!-- Generator: Sketch 60.1 (88133) - https://sketch.com -->
    <title>logo</title>
    <desc>Created with Sketch.</desc>
    <defs>
        <rect id="path-1" x="0" y="0" width="400" height="400" rx="50"></rect>
    </defs>
    <g id="Page-1" stroke="none" stroke-width="1" fill="none" fill-rule="evenodd">
        <g id="logo">
            <mask id="mask-2" fill="white">
                <use xlink:href="#path-1"></use>
            </mask>
            <use id="Rectangle" fill="#383888" xlink:href="#path-1"></use>
            <path d="M200.001282,265 L140.603078,205.920904 C137.139596,202.474681 137.131207,196.88139 140.584593,193.426671 L200,134 L259.415417,193.426671 C262.86879,196.881304 262.860401,202.474766 259.396932,205.920904 L200.001282,265 Z M187.964766,278.072841 L162.48867,303.421939 C159.033491,306.859354 153.440068,306.859354 149.984975,303.421939 L52.6016678,206.525418 C49.1397809,203.079636 49.1313958,197.487063 52.5848709,194.032786 L149.968178,96.5956632 C153.428388,93.1347789 159.046881,93.1347789 162.505414,96.5956632 L188,122.103938 L128.577563,181.557316 C118.220455,191.919718 118.244105,208.69984 128.629633,219.033925 L187.964766,278.072841 Z M212,122.103938 L237.494588,96.5956632 C240.953122,93.1347789 246.571572,93.1347789 250.031825,96.5956632 L347.415141,194.032786 C350.8686,197.486977 350.860215,203.079722 347.398344,206.525418 L250.015028,303.421939 C246.559849,306.859354 240.966425,306.859354 237.511332,303.421939 L212.035234,278.072841 L271.371675,219.03135 C281.757164,208.697266 281.780815,191.917572 271.423744,181.554742 L212,122.103938 Z" id="Shape" fill="#FFFFFF" fill-rule="nonzero" mask="url(#mask-2)"></path>
        </g>
    </g>
</svg>