<?xml version="1.0" encoding="utf-8"?>
<!-- Generator: Adobe Illustrator 26.0.3, SVG Export Plug-In . SVG Version: 6.00 Build 0)  -->
<svg version="1.1" id="Capa_1" xmlns="http://www.w3.org/2000/svg" xmlns:xlink="http://www.w3.org/1999/xlink" x="0px" y="0px"
	 viewBox="0 0 400 400" style="enable-background:new 0 0 400 400;" xml:space="preserve">
<style type="text/css">
	.st0{fill:#FFFFFF;}
	.st1{fill:#4686B6;}
	.st2{fill:#8FAF43;}
	.st3{fill:#F3A349;}
	.st4{fill-rule:evenodd;clip-rule:evenodd;fill:#4686B6;}
</style>
<g id="Capa_2_00000062174405065057726230000008278563555681025424_">
	<g id="Capa_1-2">
		<circle class="st0" cx="200" cy="200" r="196.1"/>
		<path class="st0" d="M200,7.7c106.2,0,192.3,86.1,192.3,192.3S306.2,392.3,200,392.3S7.8,306.2,7.8,200c0,0,0,0,0,0
			C7.8,93.8,93.9,7.7,200,7.7 M200,0C89.6,0,0,89.5,0,200s89.5,200,200,200s200-89.5,200-200c0,0,0,0,0,0
			C399.9,89.6,310.4,0.1,200,0z"/>
		<path class="st1" d="M304.3,59.1c-54.2-25-97.3,4.8-103,8.3S177.2,86.8,188.6,98c11.4,11.2-13.5,17.4-22,23.7
			c-8.5,6.3-35.5,20.1-38.9,45.8s-20.6,41-27.7,13.2c0,0-7.7-15.5-21.3-2.1C65.1,192,55.2,184.3,58.8,167s7.7-70.6,71.7-102.9
			c54.4-27.5,35.2-43.1,23.8-46.4c-7.7-2.3,7.7-6.1,25.4-8.3l3.5-0.4h0.7l4.1-0.4c0.9,0,1.7,0,2.6,0c1.6,0,3.2,0,4.8,0
			c1.6,0,3.1,0,4.8,0s3.7,0,5.5,0h4.4c4.3,0.2,8.4,0.6,12.6,1c1.5,0.1,3,0.4,4.4,0.7c26.5,3.6,52,12.8,74.6,27.1
			c1.7,1,3.6,2.2,5.2,3.4c3.4,2.2,6.7,4.6,9.9,7l0.8,0.6C334.9,62.8,339.3,75.3,304.3,59.1z"/>
		<path class="st2" d="M371.4,283c-0.7,2.5-1.5,5-2.7,7.4c-3.1,6.7-6.7,13.1-10.8,19.3c0,0,0,0,0,0.2c-0.3,0.5-0.6,0.9-0.9,1.3
			c-0.9,1.3-1.8,2.6-2.7,3.9c-0.9,1.3-2.3,3.1-3.5,4.6c-2.2,2.7-4.4,5.4-6.7,8c-2.3,2.6-5,5-7.6,7.5c-2.6,2.4-4.9,4.8-7.5,7.2l0,0
			c-2.4,2.2-4.8,4.3-7.3,6.3c-2.4,2.1-5,3.9-7.7,5.9c-2.7,2.1-5.2,3.9-7.7,5.5c-0.1,0-0.2,0-0.3,0c-2.6,1.7-5.3,3.4-7.7,5
			c0,0,0,0-0.2,0c-3.9,2.2-7.7,4.4-11.6,6.4c-1.6,0.8-3.3,1.6-5,2.4c-1.7,0.8-3.9,1.7-5.7,2.6c-1.9,0.9-2.8,1.2-4.3,1.7
			c-1.5,0.5-3.9,1.5-5.9,2.3s-5,1.7-7.7,2.5s-5,1.5-7.7,2.2c-1.4,0.4-2.8,0.8-4.3,1.1c-2.4,0.6-4.8,1.2-7.3,1.7
			c-2.4,0.5-5.5,1.1-8.4,1.5c-2.3,0.4-4.7,0.8-7,1c-2.5,0.3-5.1,0.6-7.7,0.8c-2.6,0.2-4.7,0.4-7,0.5s-5.8,0-8.7,0
			c-2.9,0-6.7,0-9.9-0.3c-2,0-3.9,0-6-0.4h-0.3c-2.6,0-5.2-0.5-7.7-0.9s-4.8-0.6-7.2-1c-1.1,0-2.2-0.3-3.2-0.6
			c-1.8-0.3-3.6-0.6-5.3-1c-2.6-0.6-5.2-1.1-7.7-1.8c-1.6-0.3-3.3-0.9-4.9-1.4c-3.9-1-7.7-2.2-11.6-3.6l-4.5-1.7
			c-0.9-0.3-1.9-0.7-2.8-1.1l-4.9-1.5c-3.3-1.5-6.5-2.9-9.8-4.5l-4.8-2.5c-2.2-1.1-4.3-2.3-6.4-3.6c-0.2-0.1-0.3-0.2-0.5-0.3
			c-1.7-1-3.4-2-5-3.1l-2.8-1.8l-3.9-2.7l-2.1-1.5l-5-3.9c-4.1-3.1-8-6.4-11.6-9.7c-1.9-1.7-3.9-3.4-5.6-5.2
			c-1.7-1.8-3.2-3.1-4.7-4.7c-0.6-0.6-1.1-1.2-1.6-1.7c-1.3-1.4-2.6-2.7-3.9-4.1c-0.4-0.4-0.9-0.9-1.3-1.4c-1.4-1.6-2.8-3.2-4.1-4.9
			c-3.1-3.9-6.1-7.7-8.9-11.9c-2.9-4.1-4.9-7.3-7-11c-1.1-1.7-2.1-3.6-3.2-5.4c-0.2-0.5-0.5-1-0.8-1.6c-1.1-2-2.2-3.9-3.2-6.1
			c-2-4.1-3.9-8.3-5.6-12.6c-0.9-2-1.6-3.9-2.4-6.1c0-0.3-0.2-0.6-0.3-0.9c-0.9-2.2-1.7-4.5-2.3-6.8c-0.3-0.9-0.7-1.9-0.9-2.9
			c-0.7-2.1-1.4-4.2-2-6.3c0-0.6-0.3-1.2-0.5-1.9c-0.6-1.9-1-3.8-1.4-5.8c-0.3-1.2-0.5-2.4-0.8-3.9c-0.6-2.9-1.1-5.7-1.5-8.6
			c-0.3-1.8-0.6-3.6-0.7-5.5c-0.1-1.8-0.4-3.1-0.6-4.6c-0.2-1.5,0-2.1-0.3-3.2C8,210.8,7.8,205.5,7.8,200c0-6.1,0.3-12,0.9-18
			c0-1.5,0.3-2.9,0.5-4.3c0.2-1.4,0.4-3.9,0.8-5.9c0-1,0.3-1.9,0.5-2.9c0.2-1.8,0.5-3.7,1-5.5c0.2-1.1,0.4-2.1,0.6-3.2
			c0.4-2.2,0.9-4.4,1.5-6.6c1.6-6.6,3.6-13,5.9-19.3c0-0.6,0.5-1.2,0.7-1.7c10.7-28.7,28.1-54.3,50.8-74.9c0.4-0.3,0.9-0.8,1.3-1.2
			c0.5-0.5,2.2-2,3.3-2.9c2.1-1.8,4.7-3.9,7.5-6l3.6-2.7c0.1-0.1,0.3-0.2,0.4-0.3c1.5-1.1,3.1-2.2,4.7-3.3c2.8-2,5.6-3.9,8.4-5.5
			c0.5-0.3,1.1-0.7,1.5-0.9c0.5-0.4,1.1-0.7,1.6-1c1.5-0.9,2.9-1.7,4.4-2.5c0.3-0.2,0.8-0.4,1.1-0.6l0.5-0.3l2-1
			c1.3-0.6,2.6-1.3,3.9-1.9c1.3-0.6,2.2-1,3.3-1.6c0.5-0.3,1-0.5,1.5-0.7c2-1.1,4.2-2,6.3-2.8c0.2-0.1,0.4-0.2,0.6-0.3h0.3
			c6.6-1.5,11.6-0.7,13.2,4.5c1.4,5.4-1,11.1-5.8,13.9C84.5,73,32.5,116.3,43,196.1c2.9,35.5,24.1,19.3,26.3,13.2
			c2.2-6.1,24.8-32.7,27.7,3.4c5.4,74.9,61.7,148,117.4,81.3c4-4.9,8.7-9.2,13.9-12.7c26.5-17.5,55.8-39.8,61.2-32.4
			c0.7,0.7,16.4,15.5-17.1,34.1s-14.9,32.6-14.9,32.6c27.1,29.2,80.2-13.2,93.7-27.1l2.3-2.3c1.6-1.5,3.3-2.9,4.9-4.1
			c0.9-0.6,1.6-1.2,2.4-1.7c0.8-0.5,1.5-1,2.4-1.5c0.7-0.4,1.5-0.8,2.2-1.1c0.7-0.3,1.4-0.5,1.9-0.7c1.3-0.5,2.8-0.3,3.9,0.5
			c0.1,0.3,0.2,0.5,0.3,0.8C371.8,280,371.8,281.5,371.4,283z"/>
		<path class="st3" d="M392.3,200c0,2.4,0,4.7,0,7.1c0,0.9,0,1.8,0,2.7c0,3.1-0.3,6.2-0.6,9.2c-0.3,3-0.7,5.5-1,8.2l0,0
			c-0.4,2.8-0.9,5.5-1.4,8.2c0,0,0,0.3,0,0.4c-3.9,6.1-10.4,6.6-11.6-5.7c0,0-9.6-65.8-44.7-85.1s-57.3-10.1-67.9-17
			c-3.9-2.4-13.3-17.2-2.2-29.2c0,0,6.9-17.2-15.5-8.9c-12.9,5-27.2,5.7-40.5,2.1c0,0-11.3-8.5,11.9-17.1
			c19.5-8.4,41.1-10.7,61.9-6.6c55.1,12.3,92.4,43.3,104.3,79.4c0.7,2.1,1.2,4.1,1.9,6.1c0,0,0,0,0,0.3l0,0c1.4,5.4,2.5,11,3.4,16.7
			c0.4,2.6,0.8,5.3,1,7.7c0,0.9,0.2,1.7,0.3,2.7c0.3,2.9,0.5,5.6,0.6,8.6c0,1.6,0.2,3.3,0.2,4.9C392.1,196.4,392.3,198.3,392.3,200z
			"/>
		<path class="st4" d="M360.4,221.3c0,15.2-12.3,27.5-27.5,27.4c-15.2,0-27.4-12.3-27.4-27.4c0-12.3,10.1-25.6,19-38.7
			c2.8-3.4,3.9-7.9,2.9-12.2c-1.5-7.7,8.4-6.6,16.7,7.7S360.4,208.9,360.4,221.3z"/>
	</g>
</g>
</svg>
