<?xml version="1.0" encoding="iso-8859-1"?>
<!-- Generator: Adobe Illustrator 19.0.0, SVG Export Plug-In . SVG Version: 6.00 Build 0)  -->
<svg version="1.1" id="Capa_1" xmlns="http://www.w3.org/2000/svg" xmlns:xlink="http://www.w3.org/1999/xlink" x="0px" y="0px"
	 viewBox="0 0 512 512" style="enable-background:new 0 0 512 512;" xml:space="preserve">
<g>
	<g>
		<g>
			<path d="M345.8,317.683c4.15,0,7.514-3.363,7.514-7.514v-52.546c0-4.151-3.364-7.514-7.514-7.514h-89.401
				c-4.15,0-7.514,3.363-7.514,7.514c0,4.151,3.365,7.514,7.514,7.514h81.886v45.031C338.285,314.32,341.65,317.683,345.8,317.683z"
				/>
			<path d="M268.484,453.389h-81.887v-45.03c0-4.151-3.365-7.514-7.514-7.514s-7.514,3.363-7.514,7.514v52.545
				c0,4.151,3.364,7.514,7.514,7.514h89.402c4.15,0,7.514-3.363,7.514-7.514C275.999,456.753,272.634,453.389,268.484,453.389z"/>
			<path d="M505.349,252.914c-4.12-0.477-7.851,2.478-8.33,6.599c-4.958,42.751-37.816,77.756-79.535,86.045
				c-1.891-8.494-14.281-11.69-22.875-13.433c-29.834-6.06-80.417-4.354-98.883,3.893c-5.169,2.28-9.617,5.809-9.814,11.43H238.44
				c0-10.484,0-75.627,0-86.819c0-9.797-12.357-13.564-23.122-15.751c-23.816-4.837-61.766-4.837-85.58,0
				c-9.869,2.01-23.124,5.639-23.124,15.751c0,12.196,0,74.256,0,86.493c-51.105-4.112-91.505-47.125-91.505-99.207
				c0-44.237,29.698-83.594,72.221-95.706c3.161-0.9,5.37-3.751,5.453-7.036c0.97-38.416,38.104-63.676,73.55-52.561
				c3.13,0.981,6.534-0.18,8.411-2.869c39.654-56.802,123.661-56.804,163.313,0.002c1.878,2.69,5.281,3.855,8.413,2.867
				c35.45-11.127,72.582,14.166,73.55,52.563c0.083,3.285,2.292,6.137,5.453,7.036c35.431,10.091,62.249,38.707,69.987,74.679
				c0.873,4.058,4.871,6.636,8.927,5.766c4.058-0.873,6.639-4.868,5.766-8.926c-8.532-39.664-37.213-71.559-75.452-84.389
				c-4.281-42.52-45.101-72.329-87.474-62.502C301.302,17.152,211.43,17.242,165.574,76.84c-42.55-9.86-83.208,20.142-87.473,62.506
				c-21.428,7.232-40.611,20.928-54.445,38.972c-55.456,72.342-7.564,177.548,82.957,183.867v11.626
				c0,9.797,12.358,13.564,23.123,15.752c23.813,4.836,61.765,4.838,85.581-0.001c10.766-2.187,23.122-5.954,23.122-15.753v-11.333
				h47.465c0,23.262,0,76.007,0,98.581c0,9.678,12.416,13.059,17.091,14.333c7.892,2.15,18.547,3.7,30.811,4.484
				c4.146,0.286,7.714-2.878,7.978-7.02c0.265-4.142-2.878-7.714-7.02-7.978c-20.704-1.323-30.593-4.466-33.83-6.12v-21.614
				c24.585,7.459,76.997,7.507,101.769,0.001v21.612c-3.237,1.654-13.126,4.797-33.83,6.12c-4.142,0.264-7.285,3.836-7.02,7.978
				c0.266,4.164,3.87,7.292,7.978,7.02c20.077-1.281,47.901-4.686,47.901-18.817c0-10.863,0-89.333,0-100.285
				c50.665-8.788,88.471-49.999,94.216-99.528C512.427,257.121,509.472,253.392,505.349,252.914z M216.85,260.63
				c-21.907,5.641-65.143,5.961-88.645,0C150.063,255.012,193.413,254.652,216.85,260.63z M223.412,371.54
				c-16.55,8.754-85.205,8.763-101.769-0.001c0-8.336,0-13.301,0-21.644c24.806,7.526,77.27,7.433,101.769,0
				C223.412,358.307,223.412,363.253,223.412,371.54z M223.412,333.832c-16.493,8.729-85.013,8.866-101.769,0v-21.644
				c25.038,7.608,77.535,7.345,101.769,0.001V333.832z M223.412,296.037c-16.549,8.754-85.21,8.759-101.769,0v-21.644
				c28.552,8.292,80.859,6.614,101.769,0V296.037z M396.144,347.877c-2.491,0.62-3.479,0.815-3.479,0.815
				c-25.005,5.303-66.248,4.302-85.169-0.816C331.956,341.76,375.251,342.389,396.144,347.877z M402.704,421.08
				c-16.548,8.754-85.21,8.759-101.769,0v-21.644c24.785,7.51,77.216,7.449,101.769,0V421.08z M402.704,383.283
				c-16.55,8.755-85.208,8.758-101.769,0v-21.642c27.846,8.088,80.101,6.853,101.769,0V383.283z"/>
		</g>
	</g>
</g>
<g>
</g>
<g>
</g>
<g>
</g>
<g>
</g>
<g>
</g>
<g>
</g>
<g>
</g>
<g>
</g>
<g>
</g>
<g>
</g>
<g>
</g>
<g>
</g>
<g>
</g>
<g>
</g>
<g>
</g>
</svg>
