<?xml version="1.0" encoding="utf-8"?>
<!-- Generator: Adobe Illustrator 26.2.1, SVG Export Plug-In . SVG Version: 6.00 Build 0)  -->
<svg version="1.1" id="layer" xmlns="http://www.w3.org/2000/svg" xmlns:xlink="http://www.w3.org/1999/xlink" x="0px" y="0px"
	 viewBox="0 0 180 72" style="enable-background:new 0 0 180 72;" xml:space="preserve">
<g>
	<path d="M62.3,30.8c0.7-1.5,1.5-3,2.6-4.2c1.1-1.2,2.4-2,3.9-2.7c1.5-0.7,3.1-1,4.7-1c1.9,0,3.7,0.4,5.3,1.3c1.5,0.8,2.8,1.9,4,3.4
		l8.7-7.3c-1.1-1.2-2.3-2.2-3.7-3.2c-1.4-1-2.8-1.7-4.4-2.4c-1.5-0.7-3.1-1.2-4.8-1.5s-3.5-0.6-5.2-0.6c-2.2,0-4.4,0.3-6.5,0.9
		c-2,0.6-4,1.4-5.8,2.3c-1.8,1-3.5,2.2-4.9,3.6c-1.5,1.5-2.8,3-3.9,4.7c-1.1,1.7-1.8,3.6-2.4,5.6c-0.3,0.9-0.4,1.7-0.6,2.6
		c3.2,1.5,6.5,2.7,12,3.1C61.4,33.8,61.7,32.2,62.3,30.8z"/>
	<path d="M112.3,14h-12.3v14.4c5.5,0.6,9,2,12.3,3.6V14z"/>
	<path d="M147.3,30.1v-6H167V13.9h-31.9v20.9c3.1-0.7,5.4-1.7,7.8-2.8C144.3,31.3,145.7,30.7,147.3,30.1z"/>
	<path d="M25.1,28.6v-4.4h19.6V13.9H12.8v18.9c0.6-0.3,1.2-0.5,1.7-0.8C17.6,30.6,20.6,29.2,25.1,28.6z"/>
	<path d="M147.2,48v-6.6h16.8V32c-1.3-0.1-2.5-0.2-4-0.2c-7.8,0-11.7,1.7-15.7,3.6c-2.8,1.2-5.6,2.4-9.5,3.2v19.6h32.2V48H147.2z"/>
	<path d="M112.3,36c-0.4-0.2-0.9-0.4-1.3-0.6c-3.2-1.5-6.2-2.8-11-3.3v26.1h29.6V48h-17.3V36z"/>
	<path d="M25.1,41.4h16.7v-8.2c-2.6-0.8-5.7-1.4-10.1-1.4c-7.8,0-11.7,1.7-15.7,3.6c-1.1,0.4-2.1,0.9-3.3,1.4v21.4H45V47.9H25.1
		V41.4z"/>
	<path d="M81.5,35.5c-2,1-4.2,1.8-6.8,2.6v4.9h6v3.8c-1.1,0.8-2.1,1.4-3.4,1.7c-1.3,0.4-2.5,0.7-3.9,0.7c-1.6,0-3.3-0.3-4.7-1
		c-1.5-0.7-2.8-1.5-3.9-2.7c-1.1-1.2-1.9-2.5-2.6-4.2c-0.3-0.7-0.5-1.4-0.6-2c-5.8-0.5-9.5-1.7-12.7-3.1c0,2,0.3,4.1,0.9,5.9
		c0.6,2,1.4,3.9,2.4,5.6s2.3,3.3,3.9,4.7c1.5,1.5,3.1,2.6,4.9,3.7c1.8,1,3.8,1.8,5.8,2.3c2,0.5,4.3,0.9,6.5,0.9
		c1.7,0,3.6-0.2,5.4-0.6c1.8-0.4,3.6-1,5.3-1.6c1.7-0.8,3.3-1.6,4.8-2.7c1.5-1.1,2.8-2.3,4-3.8V34.5h-9
		C83.1,34.8,82.3,35.1,81.5,35.5z"/>
</g>
</svg>
