<?xml version="1.0" encoding="utf-8"?>
<!-- Generator: Adobe Illustrator 26.2.1, SVG Export Plug-In . SVG Version: 6.00 Build 0)  -->
<svg version="1.1" id="Layer_1" xmlns="http://www.w3.org/2000/svg" xmlns:xlink="http://www.w3.org/1999/xlink" x="0px" y="0px"
	 viewBox="0 0 162 72" style="enable-background:new 0 0 162 72;" xml:space="preserve">
<style type="text/css">
	.st0{fill:#010202;}
</style>
<g>
	<path class="st0" d="M94.2,4.6c-0.1-0.3-0.3-0.7-0.4-0.8c0,0.2-0.1,0.6-0.2,0.9l-0.1,0.6c0,0.2,0,0.2,0.2,0.2l0.7-0.1
		c0.2,0,0.2-0.1,0.1-0.2L94.2,4.6z"/>
	<path class="st0" d="M111.6,3.2c-0.3-0.1-0.3,0-0.4,0.3L111,4.9c0,0.3,0,0.3,0.4,0.4c0.3,0,0.4,0,0.6-0.1c0.1-0.1,0.3-0.3,0.4-0.7
		C112.5,3.8,112.2,3.3,111.6,3.2z"/>
	<path class="st0" d="M88,4.1c-0.3,0.1-0.3,0.1-0.2,0.4l0.4,1.4c0.1,0.2,0.1,0.3,0.5,0.2C88.9,6,89,5.9,89.1,5.8
		c0.1-0.2,0.2-0.4,0.1-0.8C89,4.3,88.5,4,88,4.1z"/>
	<path class="st0" d="M118.4,6.6L118,7.1c-0.1,0.2-0.1,0.2,0.1,0.3l0.7,0.2c0.2,0.1,0.2,0,0.2-0.2l0-0.6c0-0.3,0-0.7,0-0.9
		C118.8,6,118.6,6.3,118.4,6.6z"/>
	<path class="st0" d="M64.4,20.2L63.9,20c-0.3-0.1-0.7-0.3-0.8-0.4c0.1,0.2,0.3,0.5,0.4,0.9l0.3,0.5c0.1,0.2,0.1,0.2,0.3,0l0.5-0.5
		C64.6,20.4,64.6,20.3,64.4,20.2z"/>
	<path class="st0" d="M75.3,11.8l-0.5-0.4c-0.2-0.2-0.6-0.5-0.7-0.6c0,0.2,0.1,0.6,0.2,0.9l0.1,0.6c0,0.2,0.1,0.2,0.2,0.1l0.6-0.3
		C75.4,12,75.5,11.9,75.3,11.8z"/>
	<path class="st0" d="M66.7,15.1c-0.2,0.1-0.2,0.2-0.2,0.3c0,0.1,0.1,0.2,0.2,0.4l1.7,2.1c0.3,0.3,0.4,0.5,0.6,0.5
		c0.2,0,0.4-0.1,0.6-0.2c1-0.8,0.6-1.9,0-2.7C68.7,14.4,67.7,14.3,66.7,15.1z"/>
	<path class="st0" d="M136.1,16.6c0.2,0,0.4-0.1,0.7-0.4c0.4-0.5,0.4-1.1-0.1-1.4c-0.2-0.2-0.3-0.2-0.5,0.1l-0.9,1.1
		c-0.2,0.2-0.2,0.2,0.2,0.5C135.8,16.5,135.9,16.6,136.1,16.6z"/>
	<path class="st0" d="M139.1,19.8c-0.2,0.1-0.2,0.1,0,0.3l0.5,0.5c0.1,0.1,0.2,0.1,0.3,0l0.3-0.6c0.2-0.3,0.3-0.7,0.4-0.8
		c-0.2,0.1-0.5,0.2-0.9,0.4L139.1,19.8z"/>
	<path class="st0" d="M144.6,38c0.5-2.5,2.1-4.2,2.1-4.2c3.6,3.6,6.2,4.2,6.2,4.2c-0.8-2.5-1.7-4.9-2.7-7.2h3
		c-10-18-29.2-30.2-51.2-30.2c-22,0-41.2,12.2-51.2,30.2h2.9c-1.1,2.3-2,4.7-2.7,7.2c0,0,2.5-0.6,6.2-4.2c0,0,1.7,1.7,2.1,4.2
		c1.2-3.4,2.8-6.6,4.6-9.6h-2.2c9.2-12.1,23.9-20,40.3-20c16.4,0,31.1,7.8,40.3,20h-2.3C141.8,31.4,143.4,34.6,144.6,38z M66.8,21
		c-0.3,0.3-0.5,0.5-0.7,0.7c-0.1,0-0.2-0.1-0.2-0.2l0.1-0.2c0.1-0.1,0.1-0.2,0-0.2c0,0-0.2-0.1-0.5-0.2l-0.6-0.3
		c-0.1-0.1-0.2,0-0.3,0.2l-0.6,0.6c-0.1,0.1-0.1,0.1-0.1,0.3l0.4,0.8c0.1,0.1,0.1,0.2,0.2,0.2c0,0,0.1,0,0.3-0.1l0.2-0.1
		c0.1,0,0.2,0.1,0.2,0.2c-0.2,0.2-0.4,0.4-0.6,0.6c-0.2,0.2-0.3,0.3-0.5,0.6c-0.1,0-0.2-0.1-0.2-0.2l0.1-0.2
		c0.1-0.1,0.2-0.3,0.1-0.6c-0.1-0.3-0.3-0.6-0.5-1.1l-0.8-1.7c-0.2-0.4-0.3-0.7-0.5-0.8c0.2-0.3,0.1-0.8,0.1-0.8
		c0.1-0.1,0.1-0.1,0.2,0c0.2,0.1,0.4,0.2,0.9,0.5l2.7,1.3c0.4,0.2,0.6,0.3,0.8,0.1l0.2-0.2c0.1,0,0.2,0.1,0.2,0.2
		C67.4,20.4,67.1,20.7,66.8,21z M70.8,17.2c-0.2,0.5-0.6,1-1.2,1.4c-0.3,0.2-0.6,0.4-0.8,0.6c-0.3,0.2-0.6,0.5-0.9,0.7
		c-0.1,0-0.2-0.1-0.2-0.2l0.2-0.2c0.2-0.2,0.2-0.3-0.2-0.8l-1.6-2c-0.4-0.5-0.5-0.6-0.8-0.5l-0.1,0.1c-0.1,0-0.2-0.1-0.2-0.2
		c0.5-0.4,0.9-0.8,1.5-1.3c0.5-0.4,1-0.7,1.5-0.9c1-0.3,1.9,0,2.5,0.7C71.1,15.4,71.2,16.3,70.8,17.2z M78.4,12.6
		c-0.3,0.2-0.7,0.4-1,0.6c-0.3,0.2-0.6,0.3-0.8,0.5c-0.1,0-0.2-0.1-0.1-0.2l0.2-0.2c0.1-0.1,0.1-0.2,0.1-0.2c0,0-0.2-0.2-0.4-0.4
		l-0.5-0.4c-0.1-0.1-0.1-0.1-0.4,0.1l-0.7,0.4c-0.2,0.1-0.2,0.1-0.1,0.2l0.2,0.9c0,0.1,0.1,0.2,0.1,0.3c0,0,0.1,0,0.3,0l0.2-0.1
		c0.1,0,0.2,0.2,0.1,0.2c-0.2,0.1-0.5,0.3-0.7,0.4c-0.2,0.1-0.3,0.2-0.6,0.4c-0.1,0-0.2-0.1-0.1-0.2l0.2-0.1
		c0.1-0.1,0.2-0.2,0.2-0.5c0-0.3-0.1-0.7-0.2-1.2l-0.3-1.9c-0.1-0.5-0.1-0.8-0.2-0.9C73.9,9.9,74,9.5,74,9.5c0.1,0,0.1,0,0.2,0
		c0.2,0.2,0.4,0.3,0.8,0.7l2.3,2c0.4,0.3,0.5,0.4,0.8,0.3l0.3-0.1C78.4,12.4,78.5,12.5,78.4,12.6z M80.1,11.9
		c-0.6,0.3-1.1,0.3-1.2,0.3c-0.2-0.1-0.5-0.5-0.7-1c0-0.1,0.2-0.2,0.2-0.1c0.3,0.4,1.1,0.8,1.6,0.5c0.5-0.2,0.6-0.7,0.4-1
		C80.2,10,79.5,10,79,10c-0.6,0-1.3-0.2-1.6-0.8c-0.4-0.7,0-1.5,0.9-2c0.2-0.1,0.5-0.2,0.8-0.3c0.1,0,0.2,0,0.3-0.1
		C79.5,7,79.8,7.3,80,7.7c0,0.1-0.2,0.2-0.2,0.1c-0.3-0.3-0.8-0.6-1.3-0.4c-0.4,0.2-0.5,0.6-0.4,0.9c0.1,0.3,0.5,0.5,1,0.5l0.5,0
		c0.5,0,1.2,0.2,1.6,0.9C81.5,10.6,81.1,11.4,80.1,11.9z M85.6,9.6c-0.5,0.2-0.8,0.3-1.1,0.4c-0.3,0.1-0.7,0.3-1.2,0.5
		c-0.1,0-0.1-0.2-0.1-0.2l0.3-0.1c0.3-0.1,0.3-0.2,0.1-0.9l-1.1-3c-0.1-0.2-0.1-0.2-0.2-0.1l-0.4,0.2c-0.5,0.2-0.5,0.5-0.6,1.1
		c-0.1,0.1-0.2,0.1-0.3,0c0-0.5-0.2-1-0.2-1.3c0,0,0-0.1,0.1-0.1c0,0,0.1,0,0.1,0C81.1,6,81.1,6,81.6,5.9l2.6-0.9
		c0.5-0.2,0.6-0.2,0.6-0.4c0,0,0,0,0.1-0.1c0,0,0.1,0,0.1,0c0,0.3,0.2,0.8,0.3,1.2c0,0.1-0.2,0.2-0.2,0.1c-0.3-0.4-0.5-0.7-1-0.5
		l-0.4,0.2c-0.2,0.1-0.2,0.1-0.1,0.3l1.1,3c0.2,0.6,0.3,0.7,0.6,0.6l0.3-0.1C85.6,9.3,85.7,9.5,85.6,9.6z M91.9,7.7
		c-0.1,0.1-0.3,0.2-0.5,0.2c-0.7,0.2-1.1,0-1.6-0.4c-0.3-0.3-0.6-0.6-0.8-1c-0.1-0.2-0.3-0.2-0.4-0.2c-0.2,0.1-0.3,0.1-0.2,0.2
		l0.2,0.9c0.2,0.7,0.2,0.7,0.6,0.7l0.2,0c0.1,0,0.1,0.2,0.1,0.2c-0.4,0.1-0.7,0.2-1,0.2c-0.4,0.1-0.7,0.2-1,0.3
		c-0.1,0-0.1-0.2-0.1-0.2l0.2-0.1c0.3-0.1,0.3-0.2,0.2-0.9l-0.6-2.5c-0.2-0.7-0.2-0.8-0.5-0.7l-0.2,0c-0.1,0-0.1-0.2,0-0.3
		c0.5-0.2,1.1-0.3,1.7-0.5c0.6-0.2,1.1-0.2,1.5-0.1c0.5,0.1,0.8,0.4,0.9,0.9c0.2,0.6-0.2,1-0.5,1.3c-0.1,0.1-0.1,0.1,0,0.2
		c0.7,0.8,1.1,1.3,1.6,1.5c0.2,0.1,0.4,0.1,0.5,0.1C91.9,7.6,91.9,7.7,91.9,7.7z M97,7c-0.3,0-0.7,0.1-1.1,0.1
		c-0.4,0.1-0.6,0.1-1,0.2c-0.1,0-0.1-0.2-0.1-0.3L95.1,7c0.2-0.1,0.2-0.1,0.2-0.2c0-0.1-0.1-0.2-0.2-0.5l-0.3-0.6
		c-0.1-0.1-0.1-0.1-0.4-0.1l-0.9,0.1c-0.2,0-0.2,0-0.2,0.2l-0.2,0.9c0,0.2,0,0.2,0,0.3c0,0,0.1,0.1,0.3,0.1l0.2,0
		c0.1,0,0.1,0.2,0,0.3c-0.3,0-0.5,0.1-0.8,0.1c-0.2,0-0.4,0.1-0.7,0.1c-0.1,0-0.1-0.2-0.1-0.3l0.2-0.1c0.2,0,0.3-0.1,0.4-0.4
		c0.1-0.3,0.2-0.7,0.3-1.2l0.4-1.9c0.1-0.5,0.2-0.8,0.1-1c0.3-0.1,0.6-0.5,0.6-0.5c0.1,0,0.1,0,0.2,0.1c0.1,0.2,0.2,0.5,0.5,0.9
		l1.4,2.7c0.2,0.4,0.3,0.6,0.6,0.6l0.3,0C97,6.8,97.1,7,97,7z M102,4.8c-0.1,0-0.2,0-0.2,0c-0.1,0-0.1-0.2,0-0.2
		c0.6-0.2,0.7-0.6,0.7-1.2c0-0.5-0.3-1.1-0.9-1.1c-0.3,0-0.3,0.1-0.3,0.4l0,3.1c0,0.7,0.1,0.7,0.4,0.8l0.2,0c0.1,0,0.1,0.2,0,0.2
		c-0.4,0-0.8,0-1.1,0c-0.4,0-0.7,0-1.1,0c-0.1,0-0.1-0.2,0-0.2l0.2,0c0.3-0.1,0.4-0.1,0.4-0.8l0-2.6c0-0.7,0-0.8-0.3-0.9l-0.2,0
		c-0.1,0-0.1-0.2,0-0.2c0.5,0,1.1-0.1,1.7-0.1c0.6,0,1,0.1,1.3,0.2c0.4,0.2,0.9,0.5,0.9,1.3C103.6,4.6,102.4,4.8,102,4.8z M108,7.2
		c-0.4,0-1.1-0.1-1.7-0.2l-0.9-0.1c-0.3,0-0.7-0.1-1.3-0.1c-0.1,0,0-0.2,0-0.3l0.3,0c0.3,0,0.4-0.1,0.4-0.7l0.2-2.7
		c0.1-0.7,0-0.7-0.3-0.8l-0.2-0.1c-0.1,0,0-0.2,0-0.3c0.3,0,0.7,0.1,1,0.1l1.5,0.1c0.5,0,0.9,0.1,1,0.1c0,0.1,0,0.6,0,1.1
		c0,0.1-0.2,0.1-0.3,0c-0.1-0.3-0.1-0.5-0.2-0.6c-0.1-0.1-0.3-0.3-0.7-0.3l-0.6,0c-0.2,0-0.2,0-0.3,0.3l-0.1,1.3
		c0,0.2,0,0.2,0.2,0.2l0.5,0c0.4,0,0.5,0,0.6-0.4l0.1-0.2c0.1-0.1,0.2,0,0.3,0c0,0.2-0.1,0.5-0.1,0.8c0,0.3,0,0.5,0,0.8
		c0,0.1-0.2,0.1-0.3,0l0-0.2c0-0.4-0.1-0.4-0.5-0.5l-0.5,0c-0.2,0-0.2,0-0.2,0.2L106,5.8c0,0.3,0,0.6,0.1,0.7
		c0.1,0.1,0.2,0.2,0.7,0.3c0.6,0.1,0.9,0,1.4-0.7c0.1-0.1,0.2,0,0.3,0.1C108.3,6.4,108.1,7,108,7.2z M113.7,8.1c-0.1,0-0.4,0-0.6,0
		c-0.7-0.1-1-0.4-1.3-1c-0.2-0.4-0.3-0.8-0.4-1.2c-0.1-0.2-0.2-0.3-0.3-0.3c-0.3,0-0.3,0-0.3,0.1l-0.2,0.9c-0.1,0.7-0.1,0.7,0.2,0.8
		l0.2,0.1c0,0,0,0.2,0,0.3c-0.4-0.1-0.7-0.2-1.1-0.2c-0.4-0.1-0.7-0.1-1.1-0.2c-0.1-0.1,0-0.2,0-0.3l0.2,0c0.3,0,0.4,0,0.5-0.7
		l0.5-2.5c0.1-0.7,0.1-0.8-0.2-0.9l-0.2-0.1c-0.1,0,0-0.2,0.1-0.2c0.5,0.1,1.1,0.1,1.8,0.3c0.6,0.1,1.1,0.3,1.4,0.5
		c0.4,0.3,0.5,0.7,0.4,1.2c-0.1,0.6-0.6,0.8-1,0.9c-0.1,0-0.1,0.1-0.1,0.2c0.3,1.1,0.5,1.6,0.8,2c0.2,0.2,0.3,0.3,0.4,0.3
		C113.7,8,113.7,8.1,113.7,8.1z M120.4,10.3c-0.3-0.1-0.7-0.3-1.1-0.4c-0.3-0.1-0.6-0.2-0.9-0.3c-0.1-0.1,0-0.2,0.1-0.2l0.2,0
		c0.2,0,0.2,0,0.2-0.1c0,0,0-0.2,0-0.5l0-0.7c0-0.1,0-0.2-0.3-0.2l-0.8-0.3c-0.2-0.1-0.2-0.1-0.3,0.1L117,8.4
		c-0.1,0.1-0.1,0.2-0.1,0.2c0,0,0.1,0.1,0.2,0.2l0.2,0.1c0,0.1,0,0.2-0.1,0.2c-0.2-0.1-0.5-0.2-0.8-0.3c-0.2-0.1-0.4-0.1-0.7-0.2
		c-0.1-0.1,0-0.2,0.1-0.2l0.2,0c0.2,0,0.3,0,0.5-0.2c0.2-0.2,0.5-0.5,0.8-1l1.2-1.5c0.3-0.4,0.5-0.6,0.6-0.8c0.4,0,0.7-0.2,0.7-0.2
		c0.1,0,0.1,0.1,0.1,0.2c0,0.2,0,0.5,0,1.1l0,3c0,0.5,0,0.6,0.3,0.8l0.3,0.1C120.5,10.1,120.5,10.2,120.4,10.3z M124.3,10.5
		c-0.4,0.8-1.3,1.1-2.3,0.6c-0.6-0.3-0.9-0.6-1-0.8c-0.1-0.2,0.1-0.7,0.3-1.2c0.1-0.1,0.2,0,0.3,0.1c-0.1,0.5,0.1,1.3,0.7,1.6
		c0.5,0.2,0.9,0,1-0.4c0.2-0.5-0.1-1.1-0.4-1.5c-0.4-0.5-0.7-1.1-0.4-1.7c0.3-0.8,1.1-1,2.1-0.6c0.2,0.1,0.5,0.2,0.7,0.4
		c0.1,0.1,0.1,0.1,0.2,0.2c0,0.2-0.1,0.6-0.3,1c-0.1,0.1-0.2,0-0.3-0.1c0-0.4,0-1-0.5-1.2c-0.4-0.2-0.8,0-1,0.3
		c-0.1,0.3,0,0.7,0.3,1l0.3,0.4C124.3,9.1,124.6,9.7,124.3,10.5z M127.4,11.3c0-0.1,0-0.2,0.1-0.2c0.6,0.1,0.9-0.2,1.2-0.7
		c0.3-0.5,0.3-1.1-0.3-1.4c-0.2-0.1-0.3-0.1-0.4,0.2l-1.5,2.7c-0.3,0.6-0.3,0.7-0.1,0.9l0.2,0.1c0.1,0.1,0,0.2-0.1,0.2
		c-0.4-0.2-0.7-0.4-1-0.6c-0.3-0.2-0.6-0.3-1-0.5c0-0.1,0-0.2,0.1-0.2l0.2,0.1c0.3,0.1,0.4,0.1,0.7-0.5l1.2-2.3
		c0.4-0.6,0.4-0.7,0.1-0.9l-0.2-0.1c0-0.1,0-0.2,0.1-0.2c0.4,0.2,1,0.4,1.5,0.8c0.5,0.3,0.9,0.6,1.1,0.8c0.3,0.4,0.5,0.9,0.2,1.5
		c-0.6,1.1-1.7,0.6-2.1,0.4C127.5,11.4,127.4,11.4,127.4,11.3z M131.7,16.4c-0.3-0.2-0.9-0.6-1.4-1l-0.8-0.5
		c-0.3-0.2-0.6-0.4-1.1-0.7c0-0.1,0.1-0.2,0.1-0.2l0.3,0.1c0.3,0.1,0.4,0.1,0.7-0.4l1.5-2.3c0.4-0.6,0.4-0.6,0.1-0.9l-0.1-0.1
		c0-0.1,0.1-0.2,0.2-0.2c0.3,0.2,0.6,0.4,0.9,0.6l1.3,0.9c0.4,0.3,0.7,0.5,0.8,0.5c-0.1,0.1-0.3,0.6-0.6,1c-0.1,0.1-0.2,0-0.2-0.1
		c0.1-0.3,0.1-0.5,0.1-0.6c0-0.2-0.2-0.4-0.5-0.6l-0.5-0.3c-0.2-0.1-0.2-0.1-0.4,0.1l-0.7,1.1c-0.1,0.2-0.1,0.2,0,0.3l0.4,0.3
		c0.3,0.2,0.4,0.2,0.7,0l0.1-0.1c0.1,0,0.2,0.1,0.2,0.2c-0.1,0.2-0.3,0.4-0.5,0.6c-0.2,0.2-0.3,0.5-0.4,0.7c-0.1,0-0.2-0.1-0.2-0.1
		l0.1-0.2c0.1-0.3,0.1-0.4-0.2-0.6l-0.4-0.3c-0.2-0.1-0.2-0.1-0.3,0.1l-0.5,0.7c-0.2,0.3-0.3,0.5-0.3,0.6c0,0.2,0.1,0.3,0.5,0.6
		c0.5,0.4,0.7,0.5,1.5,0c0.1,0,0.2,0.1,0.2,0.2C132.3,15.9,131.9,16.3,131.7,16.4z M136.2,20c-0.1,0-0.3-0.2-0.5-0.3
		c-0.5-0.4-0.7-0.9-0.6-1.5c0.1-0.4,0.2-0.8,0.3-1.2c0.1-0.2,0-0.3-0.1-0.4c-0.2-0.2-0.2-0.2-0.3,0l-0.6,0.7
		c-0.4,0.5-0.4,0.6-0.2,0.8l0.1,0.2c0,0.1-0.1,0.2-0.2,0.2c-0.3-0.3-0.5-0.5-0.8-0.7c-0.3-0.2-0.5-0.4-0.8-0.7
		c0-0.1,0.1-0.2,0.2-0.2l0.2,0.1c0.3,0.2,0.4,0.2,0.8-0.4l1.6-2c0.5-0.6,0.5-0.6,0.3-0.9l-0.1-0.1c0-0.1,0.1-0.2,0.2-0.2
		c0.4,0.3,0.9,0.7,1.4,1.1c0.5,0.4,0.8,0.8,0.9,1.1c0.2,0.5,0.1,0.9-0.2,1.2c-0.4,0.5-0.9,0.4-1.3,0.4c-0.1,0-0.1,0-0.1,0.1
		c-0.2,1.1-0.4,1.7-0.3,2.1c0,0.2,0.2,0.4,0.2,0.5C136.3,19.9,136.2,20,136.2,20z M141.7,18.8c-0.1,0.2-0.2,0.4-0.5,0.9l-1.3,2.7
		c-0.2,0.4-0.3,0.6-0.1,0.8l0.2,0.2c0,0.1-0.1,0.2-0.2,0.2c-0.2-0.3-0.5-0.5-0.8-0.8c-0.3-0.3-0.5-0.5-0.7-0.7
		c0-0.1,0.1-0.2,0.2-0.2l0.2,0.1c0.1,0.1,0.2,0.1,0.2,0.1c0,0,0.1-0.2,0.3-0.4l0.3-0.6c0.1-0.1,0-0.2-0.2-0.3l-0.6-0.6
		c-0.1-0.1-0.1-0.1-0.3-0.1l-0.8,0.4c-0.1,0.1-0.2,0.1-0.2,0.1c0,0,0,0.1,0.1,0.3l0.1,0.2c0,0.1-0.1,0.2-0.2,0.2
		c-0.2-0.2-0.4-0.4-0.6-0.6c-0.2-0.2-0.3-0.3-0.5-0.5c0-0.1,0.1-0.2,0.2-0.2l0.2,0.1c0.1,0.1,0.3,0.2,0.6,0.1
		c0.3-0.1,0.6-0.3,1.2-0.5l1.7-0.8c0.4-0.2,0.7-0.3,0.9-0.5c0.3,0.2,0.7,0.1,0.8,0.1C141.8,18.7,141.8,18.7,141.7,18.8z"/>
	<polygon class="st0" points="102.7,13.5 102,11.9 101.3,13.4 99.6,13.6 100.8,14.8 100.5,16.4 102,15.7 103.4,16.5 103.2,14.9 
		104.4,13.7 	"/>
	<polygon class="st0" points="107.9,12.4 107,13.8 105.3,13.9 106.4,15.2 105.9,16.8 107.5,16.2 108.9,17.1 108.8,15.5 110.1,14.4 
		108.5,14 	"/>
	<polygon class="st0" points="113,17.6 114.2,18.7 114.4,17.1 115.9,16.3 114.4,15.6 114.1,14 113,15.2 111.3,14.9 112.1,16.4 
		111.4,17.9 	"/>
	<polygon class="st0" points="118.5,19.7 119.5,21.1 119.9,19.5 121.5,18.9 120.1,18 120.1,16.3 118.8,17.4 117.2,16.9 117.8,18.5 
		116.8,19.8 	"/>
	<polygon class="st0" points="123.5,22.7 124.4,24.1 125,22.6 126.6,22.2 125.3,21.2 125.5,19.5 124.1,20.4 122.6,19.7 123,21.4 
		121.9,22.6 	"/>
	<polygon class="st0" points="128,26.1 128.8,27.5 129.5,26 131.1,25.8 129.9,24.6 130.1,23 128.7,23.8 127.2,23.1 127.5,24.7 
		126.3,25.9 	"/>
	<polygon class="st0" points="132,30.6 132.5,32.2 133.4,30.8 135.1,30.8 134.1,29.5 134.6,27.9 133.1,28.4 131.7,27.4 131.8,29.1 
		130.4,30.1 	"/>
	<polygon class="st0" points="125.9,33.6 126.6,35.1 127.4,33.6 129,33.4 127.8,32.2 128.2,30.6 126.7,31.4 125.2,30.5 125.5,32.2 
		124.2,33.3 	"/>
	<polygon class="st0" points="121,27.8 119.9,29 121.5,29.2 122.4,30.6 123,29.1 124.7,28.8 123.4,27.7 123.6,26 122.2,26.9 
		120.7,26.2 	"/>
	<polygon class="st0" points="118,25.9 119.6,25.5 118.2,24.5 118.3,22.8 116.9,23.8 115.4,23.2 115.9,24.8 114.8,26.1 116.5,26.1 
		117.4,27.5 	"/>
	<polygon class="st0" points="109.3,21.1 110.2,22.5 109.5,24 111.1,23.6 112.4,24.7 112.5,23.1 113.9,22.2 112.4,21.6 112,20 
		111,21.3 	"/>
	<polygon class="st0" points="114.4,28.1 113.1,29.2 111.5,28.8 112.2,30.3 111.3,31.7 113,31.5 114,32.8 114.4,31.2 115.9,30.6 
		114.5,29.7 	"/>
	<polygon class="st0" points="107.3,29.2 108.5,30.3 108.7,28.7 110.2,27.9 108.7,27.2 108.4,25.6 107.2,26.8 105.6,26.6 106.4,28 
		105.7,29.5 	"/>
	<polygon class="st0" points="103.2,20.3 104.3,21.6 103.8,23.1 105.3,22.6 106.7,23.5 106.6,21.9 108,20.9 106.4,20.4 105.8,18.8 
		104.9,20.2 	"/>
	<polygon class="st0" points="96.3,12.4 95.7,14 94.1,14.4 95.4,15.5 95.4,17.1 96.7,16.2 98.3,16.8 97.8,15.2 98.9,13.9 97.2,13.8 
			"/>
	<polygon class="st0" points="89.7,14 89.4,15.6 87.9,16.3 89.4,17.1 89.6,18.7 90.8,17.6 92.4,17.9 91.7,16.4 92.5,14.9 90.8,15.2 
			"/>
	<polygon class="st0" points="85.2,17.4 83.9,16.3 83.8,18 82.4,18.9 84,19.5 84.4,21.1 85.5,19.7 87.1,19.8 86.2,18.5 86.8,16.9 	
		"/>
	<polygon class="st0" points="78.8,22.6 79.4,24.1 80.3,22.7 82,22.6 80.9,21.4 81.3,19.8 79.7,20.4 78.3,19.5 78.5,21.2 77.2,22.2 
			"/>
	<polygon class="st0" points="74.5,26 75.2,27.5 76,26.1 77.6,25.9 76.5,24.7 76.8,23.1 75.3,23.8 73.8,23 74.1,24.6 72.9,25.7 	"/>
	<polygon class="st0" points="70.4,30.8 71.4,32.2 71.9,30.6 73.5,30.1 72.1,29.1 72.2,27.4 70.8,28.4 69.2,27.9 69.8,29.5 
		68.8,30.8 	"/>
	<polygon class="st0" points="68.3,32.3 67.2,33.6 65.6,33.5 66.5,34.9 65.8,36.4 67.4,36 68.7,37.1 68.8,35.4 70.2,34.5 68.7,33.9 
			"/>
	<polygon class="st0" points="72.8,38.2 73.9,39.4 74.3,37.8 75.8,37.2 74.4,36.3 74.2,34.7 73,35.8 71.4,35.4 72.1,36.9 71.2,38.3 
			"/>
	<polygon class="st0" points="83.1,35.5 83.8,37 84.5,35.5 86.2,35.2 85,34 85.2,32.4 83.8,33.2 82.3,32.4 82.6,34.1 81.4,35.3 	"/>
	<polygon class="st0" points="118.2,35.5 119,37 119.7,35.5 121.4,35.3 120.2,34.1 120.5,32.4 119,33.2 117.6,32.4 117.8,34 
		116.6,35.2 	"/>
	<polygon class="st0" points="130,39.4 131.1,38.2 132.7,38.3 131.8,36.9 132.5,35.4 130.9,35.8 129.6,34.7 129.5,36.3 128.1,37.2 
		129.6,37.8 	"/>
	<polygon class="st0" points="136.6,33.6 135.6,32.3 135.2,33.9 133.7,34.5 135.1,35.4 135.2,37.1 136.4,36 138,36.4 137.4,34.9 
		138.3,33.5 	"/>
	<polygon class="st0" points="77.2,35.1 77.9,33.6 79.6,33.3 78.4,32.2 78.6,30.6 77.2,31.4 75.7,30.6 76,32.3 74.8,33.4 76.5,33.6 
			"/>
	<polygon class="st0" points="80.6,26 80.8,27.7 79.6,28.8 81.2,29.1 81.9,30.6 82.7,29.2 84.3,29 83.2,27.8 83.6,26.2 82.1,26.9 	
		"/>
	<polygon class="st0" points="85.8,22.8 85.8,24.5 84.5,25.5 86.1,25.9 86.7,27.5 87.6,26.1 89.3,26.1 88.2,24.8 88.7,23.2 
		87.1,23.8 	"/>
	<polygon class="st0" points="92.4,20 92.1,21.6 90.5,22.2 92,23.1 92.1,24.7 93.3,23.6 94.9,24 94.3,22.5 95.1,21.1 93.5,21.3 	"/>
	<polygon class="st0" points="88.5,31.3 89.1,32.8 90,31.4 91.6,31.3 90.6,30 91,28.4 89.4,29.1 88.1,28.2 88.2,29.8 86.9,30.9 	"/>
	<polygon class="st0" points="96.9,28 97.7,26.5 96,26.8 94.9,25.6 94.6,27.2 93.1,27.9 94.6,28.7 94.8,30.3 96,29.2 97.6,29.5 	"/>
	<polygon class="st0" points="98.4,20.4 96.8,20.9 98.1,21.9 98,23.5 99.4,22.6 101,23.2 100.5,21.6 101.5,20.3 99.8,20.2 
		98.9,18.8 	"/>
	<polygon class="st0" points="102.6,25.8 101.9,24.3 101.2,25.7 99.5,25.9 100.7,27.1 100.4,28.8 101.8,28 103.3,28.8 103.1,27.2 
		104.3,26 	"/>
	<path class="st0" d="M43.9,62.6L26.5,45.2l7.2-7.2c4.2-4.3,6.6-6.7,7.1-7.1c1.8-1.6,3.2-2.8,4.5-3.5c1.2-0.7,2.2-1.2,3.1-1.5
		c0.8-0.3,1.8-0.4,2.8-0.4v-1.3H33.8v1.3h1.1c1.2,0,2,0.2,2.5,0.6c0.5,0.4,0.7,0.9,0.7,1.4c0,0.7-0.3,1.5-0.9,2.4
		c-1.4,2.1-5.6,6.3-12.5,12.6c-2.7,2.5-4.3,4-4.8,4.4V32.6c0-2.3,0.1-3.9,0.4-4.6c0.3-0.7,0.8-1.3,1.5-1.7c1-0.5,2.1-0.8,3.2-0.8
		h1.6v-1.3H6.4v1.3h1.7c1.1,0,2.2,0.3,3.2,0.8c0.7,0.4,1.2,0.9,1.4,1.5c0.3,0.8,0.5,2.4,0.5,4.8v30.5c0,2.8-0.3,4.6-0.8,5.4
		c-0.9,1.1-2.3,1.7-4.3,1.7H6.4v1.3h20.1v-1.3h-1.6c-1.1,0-2.2-0.3-3.2-0.8c-0.7-0.4-1.2-0.9-1.5-1.5c-0.3-0.8-0.5-2.3-0.5-4.7V47.9
		L36.1,64c1.2,1.2,2,2,2.2,2.5c0.2,0.4,0.3,0.9,0.3,1.5s-0.3,1.1-0.9,1.5c-0.6,0.5-1.6,0.7-2.9,0.7v1.3h22.5v-1.3
		c-2-0.1-4-0.7-6.1-1.8C49.2,67.4,46.8,65.4,43.9,62.6z"/>
	<path class="st0" d="M66.4,63c-0.3,0-0.5-0.1-0.7-0.3c-0.2-0.2-0.3-0.5-0.4-1c-0.1-0.5-0.1-1.8-0.1-4v-7.8c0-2.2-0.2-3.7-0.5-4.4
		c-0.5-1.1-1.2-1.9-2.2-2.4c-1.3-0.7-3-1-5-1c-2.7,0-4.7,0.6-6.2,1.8c-1.5,1.2-2.2,2.5-2.2,4c0,0.7,0.2,1.3,0.6,1.8
		c0.4,0.4,0.9,0.6,1.5,0.6c0.6,0,1.1-0.2,1.5-0.6c0.4-0.4,0.6-1,0.6-1.8l-0.1-1.4c0-0.7,0.3-1.4,1-2c0.6-0.6,1.5-0.8,2.5-0.8
		c1.4,0,2.4,0.4,3.2,1.3c0.7,0.9,1.1,2.4,1.1,4.7v0.9c-3.9,1.4-6.7,2.7-8.4,3.7c-1.7,1-2.9,2.1-3.6,3.2c-0.5,0.8-0.8,1.8-0.8,2.9
		c0,1.8,0.5,3.2,1.5,4.3c1,1.1,2.3,1.6,3.9,1.6c1,0,2-0.2,2.9-0.6c0.6-0.3,2.1-1.3,4.4-3.2c0,1.4,0.3,2.3,0.8,2.9
		c0.5,0.6,1.1,0.9,2,0.9c1.7,0,3.5-1.3,5.4-3.8V61c-1,1-1.7,1.6-2,1.8C66.9,62.9,66.6,63,66.4,63z M61,60.8c-2.1,1.7-3.7,2.5-5,2.5
		c-0.9,0-1.8-0.4-2.5-1.2c-0.7-0.8-1.1-1.8-1.1-3c0-1,0.3-1.8,0.9-2.6c0.6-0.8,1.5-1.6,2.8-2.3c0.7-0.4,2.4-1.1,4.9-2.1V60.8z"/>
	<path class="st0" d="M91.4,63.5c-0.2-0.5-0.4-1.5-0.4-3v-9.8c0-2.1-0.2-3.6-0.5-4.6c-0.5-1.4-1.3-2.5-2.2-3.1
		c-0.9-0.6-2-0.9-3.2-0.9c-2.4,0-5,1.6-7.7,4.9v-4.9h-1.1l-6.9,2.8l0.4,0.9c0.7-0.2,1.2-0.4,1.7-0.4c0.4,0,0.8,0.1,1,0.3
		c0.3,0.2,0.4,0.6,0.6,1.2c0.1,0.6,0.2,2.3,0.2,5v8.5c0,1.7-0.2,2.8-0.6,3.4c-0.4,0.6-1.2,0.9-2.4,0.9h-0.5v0.9h11.3v-0.9
		c-1.2,0-2.1-0.1-2.5-0.3c-0.4-0.2-0.7-0.6-1-1.1c-0.2-0.4-0.3-1.3-0.3-2.9V48.4c2-2.2,3.9-3.3,5.9-3.3c1.3,0,2.2,0.5,2.7,1.4
		c0.5,0.9,0.8,2.5,0.8,4.5v9.4c0,1.3,0,2.1-0.1,2.4c-0.2,0.6-0.5,1.1-0.9,1.4c-0.4,0.3-1.2,0.5-2.2,0.5h-0.5v0.9h11.3v-0.9
		c-1.1,0-1.9-0.1-2.3-0.4C91.9,64.2,91.6,63.9,91.4,63.5z"/>
	<path class="st0" d="M107.9,52.9l-3.7-1.8c-1.6-0.8-2.6-1.5-3.2-2.2c-0.5-0.7-0.8-1.5-0.8-2.4c0-0.8,0.4-1.4,1.1-2.1
		c0.7-0.6,1.7-0.9,2.8-0.9c1.5,0,2.8,0.4,3.8,1.3c1,0.9,1.8,2.6,2.4,5h0.8v-7.8h-0.8c-0.2,0.4-0.4,0.7-0.5,0.8
		c-0.2,0.1-0.4,0.2-0.6,0.2c-0.3,0-0.9-0.1-1.7-0.4c-1.3-0.4-2.4-0.6-3.3-0.6c-2.1,0-3.7,0.6-5,1.9c-1.3,1.3-1.9,2.8-1.9,4.7
		c0,1.5,0.4,2.7,1.1,3.6c0.8,1,2.3,2.1,4.8,3.3c2.4,1.2,4,2.2,4.8,3c0.8,0.8,1.2,1.8,1.2,2.9c0,0.9-0.4,1.8-1.1,2.4
		c-0.7,0.7-1.7,1-2.8,1c-1.6,0-3.1-0.6-4.4-1.8c-1.3-1.2-2.2-2.9-2.7-5.3h-0.8V66h0.8c0.2-0.4,0.5-0.6,0.9-0.6
		c0.4,0,0.8,0.1,1.4,0.2c1.8,0.5,3.4,0.7,4.8,0.7c2,0,3.7-0.6,5.3-1.9c1.6-1.3,2.4-3,2.4-5C112.9,56.7,111.2,54.6,107.9,52.9z"/>
	<path class="st0" d="M134.7,63c-0.3,0-0.5-0.1-0.7-0.3c-0.2-0.2-0.3-0.5-0.4-1c-0.1-0.5-0.1-1.8-0.1-4v-7.8c0-2.2-0.1-3.7-0.4-4.4
		c-0.5-1.1-1.2-1.9-2.2-2.4c-1.3-0.7-3-1-5-1c-2.7,0-4.7,0.6-6.2,1.8c-1.5,1.2-2.2,2.5-2.2,4c0,0.7,0.2,1.3,0.6,1.8
		c0.4,0.4,0.9,0.6,1.5,0.6c0.6,0,1.1-0.2,1.5-0.6c0.4-0.4,0.6-1,0.6-1.8l0-1.4c0-0.7,0.3-1.4,0.9-2c0.6-0.6,1.5-0.8,2.5-0.8
		c1.4,0,2.4,0.4,3.2,1.3c0.7,0.9,1.1,2.4,1.1,4.7v0.9c-3.9,1.4-6.7,2.7-8.4,3.7c-1.7,1-2.9,2.1-3.6,3.2c-0.5,0.8-0.8,1.8-0.8,2.9
		c0,1.8,0.5,3.2,1.5,4.3c1,1.1,2.3,1.6,3.9,1.6c1,0,2-0.2,2.9-0.6c0.6-0.3,2.1-1.3,4.4-3.2c0,1.4,0.3,2.3,0.8,2.9
		c0.5,0.6,1.1,0.9,1.9,0.9c1.7,0,3.5-1.3,5.4-3.8V61c-1,1-1.7,1.6-2,1.8C135.2,62.9,134.9,63,134.7,63z M129.3,60.8
		c-2.1,1.7-3.7,2.5-5,2.5c-0.9,0-1.8-0.4-2.5-1.2c-0.7-0.8-1.1-1.8-1.1-3c0-1,0.3-1.8,0.9-2.6c0.6-0.8,1.5-1.6,2.8-2.3
		c0.7-0.4,2.4-1.1,4.9-2.1V60.8z"/>
	<path class="st0" d="M150.5,52.9l-3.7-1.8c-1.6-0.8-2.6-1.5-3.2-2.2c-0.5-0.7-0.8-1.5-0.8-2.4c0-0.8,0.4-1.4,1.1-2.1
		c0.7-0.6,1.7-0.9,2.8-0.9c1.5,0,2.8,0.4,3.8,1.3c1,0.9,1.8,2.6,2.4,5h0.8v-7.8h-0.8c-0.2,0.4-0.4,0.7-0.5,0.8
		c-0.2,0.1-0.4,0.2-0.6,0.2c-0.3,0-0.9-0.1-1.7-0.4c-1.3-0.4-2.4-0.6-3.3-0.6c-2.1,0-3.7,0.6-5,1.9c-1.3,1.3-1.9,2.8-1.9,4.7
		c0,1.5,0.4,2.7,1.1,3.6c0.8,1,2.3,2.1,4.8,3.3c2.4,1.2,4,2.2,4.8,3c0.8,0.8,1.2,1.8,1.2,2.9c0,0.9-0.4,1.8-1.1,2.4
		c-0.7,0.7-1.7,1-2.8,1c-1.6,0-3.1-0.6-4.4-1.8c-1.3-1.2-2.2-2.9-2.7-5.3h-0.8V66h0.8c0.2-0.4,0.5-0.6,0.9-0.6
		c0.4,0,0.8,0.1,1.4,0.2c1.8,0.5,3.4,0.7,4.8,0.7c2,0,3.7-0.6,5.3-1.9c1.6-1.3,2.4-3,2.4-5C155.6,56.7,153.9,54.6,150.5,52.9z"/>
</g>
</svg>
