<?xml version="1.0" encoding="UTF-8"?><svg id="a" xmlns="http://www.w3.org/2000/svg" xmlns:xlink="http://www.w3.org/1999/xlink" viewBox="0 0 475.72 164.04"><defs><style>.c{fill:url(#b);}.d{fill:#f3a349;}.e{fill:#fff;}.f{fill:#8faf43;}.g{fill:#dbe4f5;}.h,.i{fill:#4686b6;}.j{fill:#2964ac;}.j,.i{fill-rule:evenodd;}</style><radialGradient id="b" cx="93.4" cy="44.11" fx="93.4" fy="44.11" r="36.06" gradientTransform="translate(-4.05 .66) scale(1.02 .99)" gradientUnits="userSpaceOnUse"><stop offset="0" stop-color="#fff"/><stop offset=".82" stop-color="#e7e7e8"/><stop offset="1" stop-color="#e2e2e3"/></radialGradient></defs><g><g><ellipse class="c" cx="112.78" cy="49.96" rx="47.16" ry="46.21"/><path class="e" d="M112.78,4.75c25.49,0,46.16,20.24,46.16,45.21s-20.67,45.21-46.16,45.21-46.16-20.24-46.16-45.21S87.29,4.75,112.78,4.75m0-2c-26.56,0-48.16,21.18-48.16,47.21s21.6,47.21,48.16,47.21,48.16-21.18,48.16-47.21S139.34,2.75,112.78,2.75h0Z"/></g><g/><path class="h" d="M87.65,45.89s-1.89-3.6-5.14-.49c-3.25,3.11-5.65,1.31-4.8-2.78,.86-4.09,1.86-16.63,17.31-24.24,13.14-6.47,8.5-10.15,5.76-10.97-2.74-.82,7.01-2.41,12.22-2.41,7.34,0,13.05,1.36,20.89,4.68,8.76,3.71,16.13,13.45,3.11,7.55-13.02-5.9-23.47,1.15-24.85,1.97-1.37,.82-5.82,4.59-3.08,7.21,2.74,2.62-3.26,4.09-5.31,5.57-2.06,1.47-8.57,4.75-9.43,10.81-.85,6.06-4.97,9.66-6.68,3.11"/><path class="f" d="M79.66,18s-15.94,14.83-13.88,34.15c2.34,22.02,15.41,31.6,23.25,36.19,29.56,17.28,53.19-.28,60.77-11.9,7.02-10.76,1.8-8.44-1.46-5.16-3.26,3.27-16.11,13.27-22.62,6.39,0,0-4.46-3.28,3.6-7.7,8.06-4.42,4.29-7.87,4.12-8.03-.17-.16-2.74-1.56-9.6,4.59,0,0-3.09,1.44-7.2,4.34-1.63,1.15-4.8,4.99-7.54,6.96-2.74,1.96-9.42,1.8-14.05-3.77-4.62-5.57-7.37-12.12-8.05-20.64-.69-8.52-6.17-2.29-6.68-.82-.51,1.47-5.66,5.24-6.34-3.11-.68-8.36,.69-19,8.91-26.87,8.23-7.86,13.94-8.56,14.57-10.65,0,0,1.93-5.29-3.64-3.19-5.72,2.15-14.14,9.21-14.14,9.21"/><path class="d" d="M116.36,20.99s6.99-3.29,14.92-1.56c13.29,2.9,22.29,10.2,25.14,18.71,3.08,9.22,1.67,18.14,1.54,19.17-.34,2.68-3,4.01-3.34,.25,0,0-2.32-15.48-10.79-20.02-8.48-4.55-13.75-2.46-16.32-4.06-.92-.57-3.21-4.06-.51-6.88,0,0,1.67-4.05-3.73-2.09-5.4,1.97-9.77,.49-9.77,.49,0,0-2.73-2,2.87-4.01"/><path class="i" d="M146.61,45.31c1.96,3.31,3.93,7.16,3.93,10.12,0,3.5-2.97,6.35-6.64,6.35s-6.63-2.84-6.63-6.34c0-2.9,2.45-6.04,4.6-9.09,0,0,1.05-1.11,.7-2.89-.35-1.78,2.03-1.54,4.04,1.86"/><g><g><path class="j" d="M211.9,95.8c-8,0-15.85-2.36-23.33-7-23.58-14.63-22.4-40.56-22.29-42.27-.05-.76-.33-6.34,2.09-13.64,2.35-7.09,7.81-17.18,20.48-25.04,7.32-4.55,15.4-6.85,24-6.85,14.3,0,24.92,6.3,25.37,6.57l.48,.29v28.88l-1.62-1.3s-4.65-3.64-13.45-5.23c-1.52-.27-3.06-.41-4.58-.41-6.2,0-10.16,2.29-10.2,2.32l-.05,.03-.05,.02c-.36,.16-8.99,4.18-9.16,16.96-.17,12.57,4.02,18.51,13.2,18.69h.29c6.18,0,8.37-4.05,9.07-6.1h-12.22v-21.88h40.76v1.01c0,.11-.1,11.4-.1,26.41v.1l-.02,.1c-2.93,14.57-15.87,21.6-17.03,22.2-.86,.59-9.26,6.16-21.62,6.16Z"/><path class="e" d="M212.84,2c14.18,0,24.85,6.42,24.85,6.42v26.23s-4.69-3.77-13.9-5.43c-1.69-.3-3.28-.43-4.75-.43-6.54,0-10.71,2.45-10.71,2.45,0,0-9.57,4.23-9.76,17.86-.18,13.62,4.79,19.51,14.18,19.7,.1,0,.2,0,.31,0,9.11,0,10.37-8.1,10.37-8.1h-12.52v-19.88h38.75s-.09,11.23-.09,26.42c-2.95,14.64-16.57,21.54-16.57,21.54,0,0-8.5,6.02-21.1,6.02-6.67,0-14.49-1.69-22.81-6.85-24.02-14.91-21.82-41.42-21.82-41.42,0,0-1.93-22.92,22.09-37.83,8.11-5.03,16.25-6.7,23.47-6.7M212.84,0c-8.79,0-17.05,2.36-24.53,7-23.97,14.88-23.19,37.2-23.04,39.53-.07,1.13-.36,7.57,1.98,15.67,2.33,8.08,7.83,19.41,20.78,27.45,7.64,4.74,15.67,7.15,23.86,7.15,12.41,0,20.97-5.51,22.13-6.3,1.53-.81,14.52-8.05,17.5-22.86l.04-.2v-.2c0-15.01,.09-26.29,.09-26.4l.02-2.02h-42.77v23.88h11.71c-1,1.85-3.12,4.1-7.57,4.1-.09,0-.18,0-.27,0-11.04-.22-12.32-9.56-12.22-17.67,.16-12.08,8.23-15.9,8.58-16.06l.09-.04,.1-.06s3.84-2.18,9.7-2.18c1.46,0,2.94,.13,4.4,.4,8.51,1.53,12.96,4.99,13.01,5.03l3.24,2.56V7.29l-.96-.58C238.27,6.44,227.42,0,212.84,0h0Z"/></g><g><polygon class="j" points="264.58 93.19 264.58 3.37 323.18 3.37 323.1 29.31 297.33 29.31 297.33 36.88 320.89 36.88 320.89 58.76 297.15 58.76 297.15 67.26 324.21 67.26 324.21 93.19 264.58 93.19"/><path class="e" d="M322.18,4.37l-.08,23.93h-25.77v9.57h23.56v19.88h-23.75v10.49h27.06v23.93h-57.62V4.37h56.6m2.01-2h-60.6V94.19h61.62v-27.93h-27.06v-6.49h23.75v-23.88h-23.56v-5.57h25.77v-1.99l.08-23.93V2.37h0Z"/></g><g><path class="j" d="M382.26,95.78c-7.23,0-14.56-1.87-21.77-5.56-24.97-15.27-23.39-42.02-23.37-42.29,0-.2-.29-29.03,23.37-41.14,7.04-3.6,14.37-5.43,21.78-5.43,12.64,0,21.02,5.25,21.38,5.48l.46,.29V39.42l-1.63-1.32c-6.21-5.03-11.6-6.09-15.03-6.09-1.99,0-3.17,.37-3.18,.37l-.13,.04h-.14c-.35,.02-8.77,.5-12.17,10.02-3.44,9.64,2.18,17.02,2.24,17.09,.18,.26,3.67,5.14,12.9,5.14h.47c9.64-.18,14.61-7.23,14.66-7.3l1.82-2.65v34.65l-.4,.3c-.34,.25-8.37,6.1-21.25,6.1Z"/><path class="e" d="M382.27,2.37c12.49,0,20.84,5.32,20.84,5.32v29.64c-6.52-5.28-12.21-6.31-15.66-6.31-2.2,0-3.49,.42-3.49,.42,0,0-9.39,.37-13.07,10.68s2.39,18.04,2.39,18.04c0,0,3.74,5.53,13.69,5.53,.16,0,.32,0,.49,0,10.31-.18,15.46-7.73,15.46-7.73v30.93s-7.96,5.91-20.66,5.91c-6.12,0-13.35-1.37-21.32-5.45-24.67-15.09-22.83-41.33-22.83-41.33,0,0-.55-28.35,22.83-40.32,7.79-3.99,15.08-5.32,21.32-5.32m0-2V.37c-7.57,0-15.05,1.86-22.23,5.54-10.04,5.14-17.36,14.06-21.17,25.81-2.72,8.39-2.75,15.34-2.74,16.24-.05,.88-.32,7.38,2.25,15.65,2.49,8.04,8.26,19.32,21.53,27.44l.06,.04,.07,.03c7.35,3.76,14.83,5.67,22.23,5.67,13.21,0,21.5-6.04,21.85-6.3l.81-.6V51.47l-3.65,5.35c-.19,.27-4.76,6.7-13.85,6.86-.15,0-.3,0-.45,0-8.78,0-12-4.6-12.03-4.65l-.04-.06-.04-.06c-.21-.28-5.33-7.05-2.08-16.13,3.16-8.84,10.95-9.34,11.28-9.35h.27l.26-.1h0s1.07-.32,2.87-.32c3.27,0,8.42,1.02,14.4,5.86l3.26,2.64V6.59l-.93-.59c-.36-.23-8.99-5.63-21.91-5.63h0Z"/></g></g></g><g><path class="e" d="M67.77,125.95c-.99-1.2-1.49-2.87-1.49-5.01s.54-3.83,1.61-5.04c1.07-1.22,2.57-1.82,4.5-1.82,.63,0,1.24,.08,1.85,.23s1.14,.33,1.58,.51c.44,.18,.66,.28,.66,.3l-.31,1.49c-.1-.05-.32-.16-.68-.32-.36-.16-.8-.31-1.3-.46-.51-.15-.99-.22-1.44-.22-.84,0-1.51,.18-2,.54-.49,.36-.84,.93-1.06,1.7-.22,.77-.33,1.81-.33,3.12,0,1.85,.26,3.19,.79,4.01,.53,.83,1.29,1.24,2.28,1.24,.73,0,1.26-.2,1.59-.59s.54-.81,.63-1.24v-2.47h-2.06v-1.39h4.44v6.99h-1.22l-.71-1.16c-.31,.41-.73,.74-1.25,1-.52,.26-1.16,.39-1.91,.39-1.81,0-3.21-.6-4.2-1.79Z"/><path class="e" d="M79.86,127.52v-13.25h2.81v11.78h5.14v1.47h-7.95Z"/><path class="e" d="M90.34,125.92c-1.04-1.22-1.56-2.88-1.56-5s.52-3.79,1.56-5.01c1.04-1.22,2.52-1.83,4.43-1.83s3.42,.61,4.47,1.84c1.05,1.23,1.58,2.9,1.58,5s-.53,3.77-1.58,4.99c-1.05,1.22-2.54,1.83-4.47,1.83s-3.39-.61-4.43-1.82Zm6.68-.9c.46-.85,.68-2.22,.68-4.11s-.23-3.24-.69-4.1c-.46-.86-1.21-1.28-2.24-1.28s-1.76,.43-2.21,1.28c-.46,.86-.68,2.22-.68,4.1s.22,3.26,.67,4.11c.45,.85,1.19,1.27,2.22,1.27s1.8-.42,2.25-1.27Z"/><path class="e" d="M103.13,114.27h4.03c1.05,0,1.92,.16,2.62,.48,.7,.32,1.22,.74,1.56,1.26,.34,.52,.51,1.09,.51,1.7,0,.68-.19,1.26-.56,1.73-.37,.48-.85,.86-1.42,1.16,.77,.24,1.39,.63,1.85,1.16s.69,1.18,.69,1.94c0,1.15-.44,2.08-1.31,2.77s-2.16,1.04-3.84,1.04h-4.14v-13.25Zm4.48,5.89c.38,0,.72-.18,1.03-.54,.31-.36,.46-.94,.46-1.74s-.18-1.37-.55-1.73-.86-.55-1.47-.55h-1.14v4.56h1.67Zm-.41,6.03c.73,0,1.31-.21,1.73-.64,.42-.43,.63-1.08,.63-1.95,0-1.48-.6-2.22-1.81-2.22h-1.81v4.81h1.26Z"/><path class="e" d="M113.54,127.52l4.4-13.25h3.12l4.12,13.25h-2.97l-1.14-3.71h-4.61l-1.2,3.71h-1.71Zm3.32-4.99h3.81l-1.81-6.24h-.04l-1.96,6.24Z"/><path class="e" d="M127.12,127.52v-13.25h2.81v11.78h5.14v1.47h-7.95Z"/><path class="e" d="M142.07,127.52v-13.25h7.95v1.47h-5.14v4.36h4.52v1.43h-4.52v4.52h5.42v1.47h-8.23Z"/><path class="e" d="M152.75,127.52v-13.25h2.91l5.56,8.99h.04l-.14-.92v-8.07h1.75v13.25h-2.2l-6.3-9.94h-.04l.16,1.18v8.76h-1.75Z"/><path class="e" d="M168.61,127.52l-3.97-13.25h2.98l3.14,11.19h.06l3.4-11.19h1.77l-4.26,13.25h-3.12Z"/><path class="e" d="M177.76,127.52v-13.25h2.81v13.25h-2.81Z"/><path class="e" d="M183.73,114.27h4.08c1.49,0,2.66,.36,3.51,1.09,.84,.73,1.26,1.75,1.26,3.07,0,.86-.21,1.6-.63,2.23s-.97,1.12-1.65,1.48l3.06,5.38h-3.24l-2.49-4.81h-1.08v4.81h-2.81v-13.25Zm3.85,7.09c.5,0,.89-.08,1.17-.25,.28-.17,.48-.46,.6-.87,.12-.41,.18-.97,.18-1.69,0-1.06-.15-1.82-.46-2.27-.31-.45-.83-.68-1.56-.68h-.98v5.77h1.04Z"/><path class="e" d="M196.23,125.92c-1.04-1.22-1.56-2.88-1.56-5s.52-3.79,1.56-5.01c1.04-1.22,2.52-1.83,4.43-1.83s3.42,.61,4.47,1.84c1.05,1.23,1.58,2.9,1.58,5s-.53,3.77-1.58,4.99c-1.05,1.22-2.54,1.83-4.47,1.83s-3.39-.61-4.43-1.82Zm6.68-.9c.46-.85,.68-2.22,.68-4.11s-.23-3.24-.69-4.1c-.46-.86-1.21-1.28-2.24-1.28s-1.76,.43-2.21,1.28c-.46,.86-.68,2.22-.68,4.1s.22,3.26,.67,4.11c.45,.85,1.19,1.27,2.22,1.27s1.8-.42,2.25-1.27Z"/><path class="e" d="M209.02,127.52v-13.25h2.91l5.56,8.99h.04l-.14-.92v-8.07h1.75v13.25h-2.2l-6.3-9.94h-.04l.16,1.18v8.76h-1.75Z"/><path class="e" d="M222.28,127.52l.16-13.25h3.4l3.71,9.76h.08l3.65-9.76h3.16l.14,13.25h-2.75l-.14-10.03h-.06l-3.69,10.03h-2.1l-3.69-10.03h-.06l-.06,10.03h-1.75Z"/><path class="e" d="M239.73,127.52v-13.25h7.95v1.47h-5.14v4.36h4.52v1.43h-4.52v4.52h5.42v1.47h-8.23Z"/><path class="e" d="M250.4,127.52v-13.25h2.91l5.56,8.99h.04l-.14-.92v-8.07h1.75v13.25h-2.2l-6.3-9.94h-.04l.16,1.18v8.76h-1.75Z"/><path class="e" d="M265.95,127.52v-11.78h-3.57v-1.47h9.94v1.47h-3.55v11.78h-2.83Z"/><path class="e" d="M271.78,127.52l4.4-13.25h3.12l4.12,13.25h-2.97l-1.14-3.71h-4.61l-1.2,3.71h-1.71Zm3.32-4.99h3.81l-1.81-6.24h-.04l-1.96,6.24Z"/><path class="e" d="M285.35,127.52v-13.25h2.81v11.78h5.14v1.47h-7.95Z"/><path class="e" d="M301.04,125.94c-1.05-1.2-1.57-2.85-1.57-4.94,0-1.39,.24-2.6,.71-3.65s1.17-1.85,2.08-2.42c.91-.57,1.99-.86,3.24-.86,.62,0,1.24,.08,1.84,.23,.6,.16,1.13,.33,1.57,.51,.44,.18,.66,.28,.66,.3l-.29,1.49c-.1-.05-.33-.16-.69-.32-.37-.16-.8-.31-1.31-.46-.51-.15-.99-.22-1.44-.22-.76,0-1.38,.17-1.85,.51-.48,.34-.83,.9-1.07,1.67-.24,.77-.36,1.81-.36,3.12,0,1.92,.28,3.28,.84,4.1,.56,.81,1.42,1.22,2.59,1.22,.65,0,1.23-.14,1.72-.42,.5-.28,.9-.58,1.2-.92,.31-.33,.46-.52,.46-.56l.9,.98c0,.07-.18,.31-.54,.73-.36,.42-.89,.81-1.58,1.17-.69,.36-1.54,.54-2.55,.54-2,0-3.52-.6-4.56-1.8Z"/><path class="e" d="M312.77,125.92c-1.04-1.22-1.56-2.88-1.56-5s.52-3.79,1.56-5.01c1.04-1.22,2.52-1.83,4.43-1.83s3.42,.61,4.47,1.84c1.05,1.23,1.58,2.9,1.58,5s-.53,3.77-1.58,4.99c-1.05,1.22-2.54,1.83-4.47,1.83s-3.39-.61-4.43-1.82Zm6.68-.9c.46-.85,.68-2.22,.68-4.11s-.23-3.24-.69-4.1c-.46-.86-1.21-1.28-2.24-1.28s-1.76,.43-2.21,1.28c-.46,.86-.68,2.22-.68,4.1s.22,3.26,.67,4.11c.45,.85,1.19,1.27,2.22,1.27s1.8-.42,2.25-1.27Z"/><path class="e" d="M325.56,127.52v-13.25h2.91l5.56,8.99h.04l-.14-.92v-8.07h1.75v13.25h-2.2l-6.3-9.94h-.04l.16,1.18v8.76h-1.75Z"/><path class="e" d="M339.66,127.39c-.6-.24-1.04-.49-1.33-.76-.29-.27-.44-.43-.44-.49l.77-1.18s.13,.15,.4,.38c.27,.22,.63,.43,1.08,.62s.98,.29,1.58,.29c.64,0,1.13-.17,1.49-.51,.35-.34,.53-.79,.53-1.35,0-.35-.1-.66-.29-.93-.19-.26-.43-.49-.7-.67-.28-.18-.67-.42-1.17-.7-.65-.34-1.19-.67-1.61-.98-.42-.31-.78-.72-1.08-1.22-.3-.5-.45-1.12-.45-1.85,0-.8,.18-1.5,.55-2.1,.37-.6,.88-1.06,1.53-1.38s1.39-.48,2.22-.48c.54,0,1.06,.07,1.54,.2s.89,.29,1.22,.46c.33,.17,.5,.26,.5,.28l-.33,1.39c-.07-.04-.23-.13-.5-.28-.26-.14-.6-.28-1.01-.42-.41-.14-.82-.2-1.24-.2-.52,0-.93,.15-1.24,.44-.31,.29-.47,.7-.47,1.21,0,.57,.18,1.03,.55,1.37,.37,.34,.93,.71,1.69,1.12,.68,.37,1.22,.7,1.63,1,.41,.3,.76,.7,1.05,1.21,.29,.51,.44,1.14,.44,1.91,0,.83-.21,1.54-.62,2.14-.41,.6-.98,1.06-1.68,1.38-.71,.32-1.49,.48-2.36,.48s-1.64-.12-2.24-.36Z"/><path class="e" d="M349.9,126.42c-.82-.88-1.23-2.12-1.23-3.71v-8.44h2.83v7.8c0,1.47,.2,2.52,.6,3.16,.4,.64,1.03,.96,1.88,.96,.91,0,1.58-.33,2.02-1,.43-.67,.65-1.7,.65-3.12v-7.8h1.73v8.44c0,1.6-.38,2.84-1.14,3.72-.76,.88-2,1.31-3.71,1.31-1.6,0-2.82-.44-3.64-1.32Z"/><path class="e" d="M361.36,127.52v-13.25h2.81v11.78h5.14v1.47h-7.95Z"/><path class="e" d="M371.98,127.52v-11.78h-3.57v-1.47h9.94v1.47h-3.55v11.78h-2.83Z"/><path class="e" d="M380.21,127.52v-13.25h2.81v13.25h-2.81Z"/><path class="e" d="M386.19,127.52v-13.25h2.91l5.56,8.99h.04l-.14-.92v-8.07h1.75v13.25h-2.2l-6.3-9.94h-.04l.16,1.18v8.76h-1.75Z"/><path class="e" d="M400.1,125.95c-.99-1.2-1.49-2.87-1.49-5.01s.54-3.83,1.61-5.04c1.07-1.22,2.57-1.82,4.5-1.82,.63,0,1.24,.08,1.85,.23s1.14,.33,1.58,.51c.44,.18,.66,.28,.66,.3l-.31,1.49c-.1-.05-.32-.16-.68-.32-.36-.16-.8-.31-1.3-.46-.51-.15-.99-.22-1.44-.22-.84,0-1.51,.18-2,.54-.49,.36-.84,.93-1.06,1.7-.22,.77-.33,1.81-.33,3.12,0,1.85,.26,3.19,.79,4.01,.53,.83,1.29,1.24,2.28,1.24,.73,0,1.26-.2,1.59-.59s.54-.81,.63-1.24v-2.47h-2.06v-1.39h4.44v6.99h-1.22l-.71-1.16c-.31,.41-.73,.74-1.25,1-.52,.26-1.16,.39-1.91,.39-1.81,0-3.21-.6-4.2-1.79Z"/></g><g><path class="g" d="M2.11,163.53c-.72-.32-1.25-.66-1.59-1.02-.34-.36-.51-.57-.51-.64l.63-.98c0,.05,.16,.24,.48,.56s.78,.63,1.39,.9,1.36,.41,2.24,.41c1.05,0,1.88-.3,2.48-.92,.6-.61,.9-1.37,.9-2.27,0-.62-.15-1.14-.45-1.56-.3-.42-.67-.75-1.12-1-.44-.25-1.04-.54-1.79-.85-.87-.35-1.57-.68-2.11-1-.54-.32-.99-.76-1.35-1.32-.37-.56-.55-1.27-.55-2.14,0-1.37,.43-2.46,1.3-3.27,.87-.81,2.03-1.22,3.49-1.22,.72,0,1.37,.1,1.94,.31,.58,.21,1.04,.44,1.39,.68,.35,.24,.53,.38,.53,.41l-.25,1.1s-.17-.17-.5-.4c-.33-.23-.76-.45-1.28-.65-.52-.2-1.09-.3-1.73-.3-.94,0-1.67,.26-2.21,.78-.54,.52-.8,1.22-.8,2.11,0,.62,.15,1.13,.44,1.54,.29,.41,.66,.74,1.1,.99,.44,.25,1.03,.53,1.77,.83,.89,.37,1.6,.71,2.13,1.04s.99,.78,1.37,1.37c.38,.59,.56,1.34,.56,2.26s-.21,1.73-.64,2.44c-.43,.71-1.03,1.27-1.82,1.67-.79,.4-1.7,.6-2.73,.6s-1.99-.16-2.71-.48Z"/><path class="g" d="M13.48,162.31c-.91-1.14-1.37-2.74-1.37-4.81s.46-3.68,1.37-4.81,2.24-1.7,3.97-1.7,3.06,.57,3.97,1.7c.91,1.14,1.37,2.74,1.37,4.81s-.46,3.66-1.39,4.8c-.93,1.15-2.24,1.72-3.95,1.72s-3.06-.57-3.97-1.7Zm6.56-.74c.55-.89,.83-2.25,.83-4.07s-.28-3.16-.83-4.06c-.55-.9-1.41-1.35-2.58-1.35s-2.03,.45-2.58,1.34c-.55,.89-.83,2.25-.83,4.07s.28,3.18,.83,4.07c.55,.89,1.41,1.34,2.58,1.34s2.03-.45,2.58-1.34Z"/><path class="g" d="M25.62,163.76v-18.75l1.8-.1v18.85h-1.8Z"/><path class="g" d="M32.04,162.99c-.67-.68-1-1.68-1-3.02v-8.75h1.83v8.37c0,2.06,.87,3.08,2.61,3.08,.6,0,1.12-.1,1.55-.29,.43-.19,.78-.4,1.04-.61,.26-.22,.39-.34,.39-.38v-10.18h1.83v12.54h-1.53l-.25-1.2c-.22,.3-.62,.62-1.2,.95-.59,.33-1.4,.5-2.43,.5-1.22,0-2.17-.34-2.83-1.02Z"/><path class="g" d="M45.13,163.17c-.43-.56-.65-1.48-.65-2.77v-7.95h-1.3v-1.05l1.3-.15,.68-3.99h1.15v3.96h3.21v1.23h-3.21v7.5c0,1.09,.1,1.83,.31,2.24,.21,.41,.57,.61,1.09,.61,.42,0,.79-.04,1.13-.13,.33-.08,.5-.13,.5-.15l.13,1s-.14,.09-.31,.16c-.17,.08-.43,.15-.78,.21-.34,.07-.76,.1-1.24,.1-.9,0-1.57-.28-2.01-.84Z"/><path class="g" d="M52.4,148.42c-.22-.22-.33-.48-.33-.8s.11-.58,.33-.8c.18-.18,.43-.28,.73-.28,.32,0,.57,.08,.75,.25,.2,.22,.3,.49,.3,.83,0,.3-.1,.57-.3,.8-.23,.18-.48,.28-.75,.28-.3,0-.54-.09-.73-.28Zm-.2,15.34v-12.54h1.83v12.54h-1.83Z"/><path class="g" d="M58.2,162.31c-.91-1.14-1.37-2.74-1.37-4.81s.46-3.68,1.37-4.81c.91-1.14,2.24-1.7,3.97-1.7s3.06,.57,3.97,1.7c.91,1.14,1.37,2.74,1.37,4.81s-.46,3.66-1.39,4.8c-.93,1.15-2.24,1.72-3.95,1.72s-3.06-.57-3.97-1.7Zm6.56-.74c.55-.89,.83-2.25,.83-4.07s-.28-3.16-.83-4.06c-.55-.9-1.41-1.35-2.58-1.35s-2.03,.45-2.58,1.34c-.55,.89-.83,2.25-.83,4.07s.28,3.18,.83,4.07c.55,.89,1.41,1.34,2.58,1.34s2.03-.45,2.58-1.34Z"/><path class="g" d="M70.35,151.22h1.5l.23,1.2c.27-.32,.68-.64,1.25-.97,.57-.33,1.39-.49,2.46-.49,1.2,0,2.14,.34,2.81,1.02s1,1.68,1,3.02v8.75h-1.83v-8.37c0-1.07-.22-1.85-.65-2.34-.44-.49-1.08-.74-1.93-.74-.6,0-1.13,.09-1.58,.28-.45,.18-.81,.38-1.07,.6-.26,.22-.39,.34-.39,.38v10.2h-1.8v-12.54Z"/><path class="g" d="M84.05,163.6c-.61-.28-1.07-.57-1.38-.89s-.46-.5-.46-.55l.63-.88s.13,.19,.4,.48c.27,.28,.63,.55,1.1,.79,.47,.24,1.02,.36,1.65,.36,.94,0,1.64-.23,2.12-.7s.71-1.04,.71-1.7c0-.48-.12-.89-.36-1.2-.24-.32-.54-.56-.9-.74s-.86-.37-1.49-.59c-.74-.27-1.32-.51-1.76-.74-.44-.23-.81-.56-1.12-1.02s-.46-1.04-.46-1.76c0-1.07,.39-1.92,1.17-2.54s1.78-.94,3-.94c.54,0,1.05,.07,1.54,.21,.49,.14,.89,.29,1.19,.45,.3,.16,.49,.26,.58,.31l-.3,1.08c-.07-.05-.23-.15-.5-.31-.27-.16-.61-.31-1.04-.46s-.87-.23-1.32-.23c-.77,0-1.39,.19-1.87,.58-.48,.38-.71,.87-.71,1.45,0,.48,.13,.89,.38,1.22,.25,.33,.56,.58,.94,.76,.38,.18,.88,.39,1.52,.63,.74,.25,1.33,.5,1.79,.74,.46,.24,.85,.59,1.17,1.04,.32,.45,.48,1.04,.48,1.76,0,1.09-.38,1.99-1.13,2.72-.75,.73-1.86,1.09-3.31,1.09-.89,0-1.63-.14-2.24-.41Z"/><path class="g" d="M99.76,152.45h-1.3v-1.05l1.3-.15v-1.81c0-1.62,.25-2.81,.75-3.57,.5-.76,1.35-1.14,2.53-1.14,.4,0,.78,.05,1.13,.16,.35,.11,.63,.22,.85,.34,.22,.12,.35,.19,.4,.23l-.25,.98s-.16-.1-.33-.19-.38-.18-.65-.26c-.27-.08-.54-.13-.83-.13-.45,0-.8,.11-1.05,.33-.25,.22-.44,.6-.56,1.15-.13,.55-.19,1.32-.19,2.31v1.58h3.64v1.23h-3.64v11.31h-1.8v-11.31Z"/><path class="g" d="M107.52,162.31c-.91-1.14-1.37-2.74-1.37-4.81s.46-3.68,1.37-4.81,2.24-1.7,3.97-1.7,3.06,.57,3.97,1.7c.91,1.14,1.37,2.74,1.37,4.81s-.46,3.66-1.39,4.8c-.93,1.15-2.24,1.72-3.95,1.72s-3.06-.57-3.97-1.7Zm6.56-.74c.55-.89,.83-2.25,.83-4.07s-.28-3.16-.83-4.06c-.55-.9-1.41-1.35-2.58-1.35s-2.03,.45-2.58,1.34c-.55,.89-.83,2.25-.83,4.07s.28,3.18,.83,4.07c.55,.89,1.41,1.34,2.58,1.34s2.03-.45,2.58-1.34Z"/><path class="g" d="M119.64,151.22h1.35l.28,2.58c0-.1,.1-.39,.29-.87,.19-.48,.49-.92,.89-1.34,.4-.42,.92-.63,1.55-.63,.32,0,.68,.05,1.08,.16,.4,.11,.66,.19,.78,.24l-.17,1.38c-.12-.05-.38-.13-.79-.23-.41-.1-.77-.15-1.09-.15-.49,0-.9,.16-1.24,.49-.34,.33-.6,.67-.77,1.04-.17,.37-.28,.64-.33,.83v9.03h-1.83v-12.54Z"/><path class="g" d="M134.84,163.17c-.43-.56-.65-1.48-.65-2.77v-7.95h-1.3v-1.05l1.3-.15,.68-3.99h1.15v3.96h3.21v1.23h-3.21v7.5c0,1.09,.1,1.83,.31,2.24,.21,.41,.57,.61,1.09,.61,.42,0,.79-.04,1.13-.13,.33-.08,.5-.13,.5-.15l.13,1s-.14,.09-.31,.16c-.17,.08-.43,.15-.78,.21-.34,.07-.76,.1-1.24,.1-.9,0-1.57-.28-2.01-.84Z"/><path class="g" d="M141.91,145.01l1.83-.1v7.45h.03c.42-.45,.94-.79,1.55-1.03,.62-.23,1.3-.35,2.03-.35,1.22,0,2.16,.34,2.82,1.02s.99,1.68,.99,3.02v8.75h-1.8v-8.52c0-1.96-.87-2.93-2.61-2.93-.6,0-1.13,.09-1.58,.28-.45,.18-.8,.38-1.05,.6-.25,.22-.38,.34-.38,.38v10.2h-1.83v-18.75Z"/><path class="g" d="M155.25,162.44c-.95-1.04-1.43-2.61-1.43-4.7s.46-3.76,1.38-4.96,2.17-1.8,3.76-1.8c1.44,0,2.55,.5,3.32,1.49,.78,.99,1.17,2.4,1.17,4.22,0,.32-.02,.58-.05,.78s-.06,.33-.08,.38h-7.6c0,3.38,1.22,5.06,3.66,5.06,.67,0,1.24-.12,1.72-.36s.85-.5,1.12-.78c.27-.28,.4-.44,.4-.49l.73,.6c0,.07-.16,.28-.48,.64s-.79,.7-1.4,1.02c-.62,.32-1.38,.48-2.28,.48-1.67,0-2.98-.52-3.94-1.57Zm6.49-5.65l.02-.48c0-2.84-.94-4.26-2.81-4.26-.99,0-1.75,.39-2.28,1.17-.54,.78-.84,1.97-.93,3.57h5.99Z"/><path class="g" d="M172.44,163.76v-16.3h8.78v1.2h-6.87v6.27h6.29v1.15h-6.29v6.47h7.42v1.2h-9.33Z"/><path class="g" d="M184.68,151.22h1.5l.23,1.2c.27-.32,.68-.64,1.25-.97,.57-.33,1.39-.49,2.46-.49,1.2,0,2.14,.34,2.81,1.02,.67,.68,1,1.68,1,3.02v8.75h-1.83v-8.37c0-1.07-.22-1.85-.65-2.34-.44-.49-1.08-.74-1.93-.74-.6,0-1.13,.09-1.58,.28-.45,.18-.81,.38-1.07,.6-.26,.22-.39,.34-.39,.38v10.2h-1.8v-12.54Z"/><path class="g" d="M200.25,163.76l-4.29-12.54h2.16l3.26,10.56,3.46-10.56h1.38l-4.31,12.54h-1.65Z"/><path class="g" d="M208.6,148.42c-.22-.22-.33-.48-.33-.8s.11-.58,.33-.8c.18-.18,.43-.28,.73-.28,.32,0,.57,.08,.75,.25,.2,.22,.3,.49,.3,.83,0,.3-.1,.57-.3,.8-.23,.18-.48,.28-.75,.28-.3,0-.54-.09-.73-.28Zm-.2,15.34v-12.54h1.83v12.54h-1.83Z"/><path class="g" d="M213.96,151.22h1.35l.28,2.58c0-.1,.1-.39,.29-.87,.19-.48,.49-.92,.89-1.34,.4-.42,.92-.63,1.55-.63,.32,0,.68,.05,1.08,.16,.4,.11,.66,.19,.78,.24l-.17,1.38c-.12-.05-.38-.13-.79-.23-.41-.1-.77-.15-1.09-.15-.49,0-.9,.16-1.24,.49-.34,.33-.6,.67-.77,1.04-.17,.37-.28,.64-.33,.83v9.03h-1.83v-12.54Z"/><path class="g" d="M222.65,162.31c-.91-1.14-1.37-2.74-1.37-4.81s.46-3.68,1.37-4.81,2.24-1.7,3.97-1.7,3.06,.57,3.97,1.7c.91,1.14,1.37,2.74,1.37,4.81s-.46,3.66-1.39,4.8c-.93,1.15-2.24,1.72-3.95,1.72s-3.06-.57-3.97-1.7Zm6.56-.74c.55-.89,.83-2.25,.83-4.07s-.28-3.16-.83-4.06c-.55-.9-1.41-1.35-2.58-1.35s-2.03,.45-2.58,1.34c-.55,.89-.83,2.25-.83,4.07s.28,3.18,.83,4.07c.55,.89,1.41,1.34,2.58,1.34s2.03-.45,2.58-1.34Z"/><path class="g" d="M234.8,151.22h1.5l.23,1.2c.27-.32,.68-.64,1.25-.97,.57-.33,1.39-.49,2.46-.49,1.2,0,2.14,.34,2.81,1.02s1,1.68,1,3.02v8.75h-1.83v-8.37c0-1.07-.22-1.85-.65-2.34-.44-.49-1.08-.74-1.93-.74-.6,0-1.13,.09-1.58,.28-.45,.18-.81,.38-1.07,.6-.26,.22-.39,.34-.39,.38v10.2h-1.8v-12.54Z"/><path class="g" d="M247.64,151.22h1.5l.23,1.33c.28-.33,.72-.68,1.3-1.04,.58-.36,1.33-.54,2.23-.54,.69,0,1.24,.12,1.67,.36,.43,.24,.75,.63,.97,1.17,.27-.32,.71-.65,1.33-1s1.4-.53,2.33-.53c1.05,0,1.82,.28,2.31,.83,.48,.55,.73,1.47,.73,2.76v9.2h-1.83v-9c0-.97-.15-1.63-.45-1.97-.3-.34-.78-.51-1.43-.51-.69,0-1.26,.15-1.72,.46-.46,.31-.8,.61-1.02,.92,.03,.37,.05,.66,.05,.88v9.23h-1.83v-9c0-.95-.15-1.6-.44-1.96s-.76-.53-1.39-.53c-.7,0-1.29,.16-1.77,.48-.48,.32-.8,.61-.97,.88v10.13h-1.8v-12.54Z"/><path class="g" d="M266.29,162.44c-.95-1.04-1.43-2.61-1.43-4.7s.46-3.76,1.38-4.96,2.17-1.8,3.76-1.8c1.44,0,2.55,.5,3.32,1.49,.78,.99,1.17,2.4,1.17,4.22,0,.32-.02,.58-.05,.78s-.06,.33-.08,.38h-7.6c0,3.38,1.22,5.06,3.66,5.06,.67,0,1.24-.12,1.72-.36s.85-.5,1.12-.78c.27-.28,.4-.44,.4-.49l.73,.6c0,.07-.16,.28-.48,.64s-.79,.7-1.4,1.02c-.62,.32-1.38,.48-2.28,.48-1.67,0-2.98-.52-3.94-1.57Zm6.49-5.65l.02-.48c0-2.84-.94-4.26-2.81-4.26-.99,0-1.75,.39-2.28,1.17-.54,.78-.84,1.97-.93,3.57h5.99Z"/><path class="g" d="M277.17,151.22h1.5l.23,1.2c.27-.32,.68-.64,1.25-.97,.57-.33,1.39-.49,2.46-.49,1.2,0,2.14,.34,2.81,1.02s1,1.68,1,3.02v8.75h-1.83v-8.37c0-1.07-.22-1.85-.65-2.34-.44-.49-1.08-.74-1.93-.74-.6,0-1.13,.09-1.58,.28-.45,.18-.81,.38-1.07,.6-.26,.22-.39,.34-.39,.38v10.2h-1.8v-12.54Z"/><path class="g" d="M291.09,163.17c-.43-.56-.65-1.48-.65-2.77v-7.95h-1.3v-1.05l1.3-.15,.68-3.99h1.15v3.96h3.21v1.23h-3.21v7.5c0,1.09,.1,1.83,.31,2.24,.21,.41,.57,.61,1.09,.61,.42,0,.79-.04,1.13-.13,.33-.08,.5-.13,.5-.15l.13,1s-.14,.09-.31,.16c-.17,.08-.43,.15-.78,.21-.34,.07-.76,.1-1.24,.1-.9,0-1.57-.28-2.01-.84Z"/><path class="g" d="M303.95,163.2c-.67-.54-1-1.3-1-2.27,0-2.46,2.37-3.94,7.1-4.44v-1.33c0-1.19-.19-2-.58-2.43-.38-.43-1.06-.65-2.03-.65-.43,0-.88,.08-1.33,.24s-.83,.33-1.14,.5-.51,.29-.59,.34l-.2-1.03c.08-.07,.3-.19,.64-.38,.34-.18,.78-.36,1.3-.53,.53-.17,1.06-.25,1.59-.25,1.44,0,2.49,.3,3.16,.9s1,1.66,1,3.18v6.14c0,.67,.06,1.12,.19,1.35s.28,.35,.46,.35c.15,0,.33-.03,.55-.09,.22-.06,.36-.1,.43-.14l.07,.85c-.13,.05-.42,.14-.85,.28-.43,.13-.8,.2-1.1,.2-.44,0-.77-.14-1-.41-.23-.28-.38-.76-.43-1.47h-.03c0,.07-.13,.26-.4,.58s-.66,.61-1.19,.89c-.53,.28-1.18,.41-1.97,.41-1.1,0-1.99-.27-2.66-.81Zm4.76-.69c.43-.27,.76-.56,.99-.88,.23-.32,.34-.5,.34-.55v-3.66c-1.52,.17-2.77,.49-3.75,.98-.98,.49-1.47,1.25-1.47,2.31,0,.72,.21,1.27,.63,1.64,.42,.38,.99,.56,1.7,.56,.6,0,1.12-.13,1.55-.4Z"/><path class="g" d="M315.98,151.22h1.5l.23,1.2c.27-.32,.68-.64,1.25-.97,.57-.33,1.39-.49,2.46-.49,1.2,0,2.14,.34,2.81,1.02s1,1.68,1,3.02v8.75h-1.83v-8.37c0-1.07-.22-1.85-.65-2.34-.44-.49-1.08-.74-1.93-.74-.6,0-1.13,.09-1.58,.28-.45,.18-.81,.38-1.07,.6-.26,.22-.39,.34-.39,.38v10.2h-1.8v-12.54Z"/><path class="g" d="M329.25,162.38c-.92-1.09-1.38-2.6-1.38-4.54,0-2.09,.45-3.76,1.34-5,.89-1.25,2.15-1.87,3.77-1.87,.69,0,1.26,.09,1.73,.26s.83,.37,1.08,.58c.25,.21,.38,.33,.38,.36h.03v-7.17l1.8-.1v18.85h-1.55l-.2-1.48c-.18,.37-.54,.75-1.08,1.14-.54,.39-1.29,.59-2.26,.59-1.52,0-2.74-.54-3.66-1.63Zm5.62,.01c.43-.26,.77-.54,.99-.84,.23-.3,.34-.48,.34-.53v-7.7s-.11-.15-.34-.35c-.23-.2-.54-.38-.93-.55-.39-.17-.86-.25-1.39-.25-1.29,0-2.23,.47-2.83,1.42-.6,.94-.9,2.34-.9,4.2,0,1.76,.3,3.03,.89,3.81s1.47,1.18,2.62,1.18c.6,0,1.12-.13,1.55-.39Z"/><path class="g" d="M348.07,147.46h3.91c1.67,0,2.97,.44,3.9,1.3,.93,.87,1.39,2.16,1.39,3.86,0,1.27-.25,2.31-.75,3.12s-1.15,1.4-1.94,1.76c-.79,.36-1.64,.54-2.54,.54h-2.06v5.72h-1.91v-16.3Zm3.69,9.53c2.34,0,3.51-1.43,3.51-4.29,0-1.4-.3-2.44-.9-3.12-.6-.68-1.46-1.02-2.58-1.02h-1.8v8.42h1.78Z"/><path class="g" d="M360.86,162.99c-.67-.68-1-1.68-1-3.02v-8.75h1.83v8.37c0,2.06,.87,3.08,2.61,3.08,.6,0,1.12-.1,1.55-.29,.43-.19,.78-.4,1.04-.61,.26-.22,.39-.34,.39-.38v-10.18h1.83v12.54h-1.53l-.25-1.2c-.22,.3-.62,.62-1.2,.95-.59,.33-1.4,.5-2.43,.5-1.22,0-2.17-.34-2.83-1.02Z"/><path class="g" d="M375.73,163.62c-.54-.28-.94-.56-1.2-.84l-.35,.98h-1.3v-18.75l1.83-.1v7.75h.03c0-.05,.12-.22,.36-.51,.24-.29,.61-.56,1.1-.81,.49-.25,1.12-.38,1.87-.38,1.49,0,2.68,.55,3.59,1.64,.9,1.09,1.35,2.61,1.35,4.55,0,2.11-.44,3.78-1.33,5.03-.89,1.25-2.17,1.87-3.84,1.87-.87,0-1.57-.14-2.11-.41Zm4.45-2.21c.59-.94,.89-2.35,.89-4.22,0-1.74-.3-3.01-.9-3.82-.6-.81-1.48-1.22-2.63-1.22-.84,0-1.48,.22-1.93,.65-.45,.44-.75,.82-.9,1.15v7.75c.12,.22,.4,.46,.85,.73,.45,.27,1.05,.4,1.8,.4,1.29,0,2.23-.47,2.82-1.42Z"/><path class="g" d="M385.81,163.76v-18.75l1.8-.1v18.85h-1.8Z"/><path class="g" d="M391.57,148.42c-.22-.22-.33-.48-.33-.8s.11-.58,.33-.8c.18-.18,.43-.28,.73-.28,.32,0,.57,.08,.75,.25,.2,.22,.3,.49,.3,.83,0,.3-.1,.57-.3,.8-.23,.18-.48,.28-.75,.28-.3,0-.54-.09-.73-.28Zm-.2,15.34v-12.54h1.83v12.54h-1.83Z"/><path class="g" d="M397.42,162.41c-.94-1.07-1.4-2.67-1.4-4.79s.46-3.78,1.39-4.93c.93-1.15,2.29-1.72,4.07-1.72,.58,0,1.14,.08,1.66,.24,.52,.16,.96,.33,1.32,.53,.36,.19,.54,.3,.54,.31l-.23,1.03c-.07-.05-.25-.15-.54-.31-.29-.16-.67-.31-1.13-.46-.46-.15-.93-.23-1.42-.23-1.29,0-2.23,.43-2.83,1.28-.6,.85-.9,2.27-.9,4.24s.32,3.27,.95,4.09c.63,.82,1.53,1.23,2.68,1.23,.65,0,1.21-.12,1.67-.35,.46-.23,.81-.48,1.07-.74,.25-.26,.38-.41,.38-.46l.8,.53c0,.07-.15,.28-.45,.64-.3,.36-.75,.7-1.35,1.02-.6,.32-1.35,.48-2.26,.48-1.74,0-3.08-.53-4.01-1.6Z"/><path class="g" d="M413.89,163.76v-16.3h1.91v7.32h7.45v-7.32h1.91v16.3h-1.91v-7.82h-7.45v7.82h-1.91Z"/><path class="g" d="M429.88,162.44c-.95-1.04-1.43-2.61-1.43-4.7s.46-3.76,1.38-4.96,2.17-1.8,3.76-1.8c1.44,0,2.55,.5,3.32,1.49,.78,.99,1.17,2.4,1.17,4.22,0,.32-.02,.58-.05,.78s-.06,.33-.08,.38h-7.6c0,3.38,1.22,5.06,3.66,5.06,.67,0,1.24-.12,1.72-.36s.85-.5,1.12-.78c.27-.28,.4-.44,.4-.49l.73,.6c0,.07-.16,.28-.48,.64s-.79,.7-1.4,1.02c-.62,.32-1.38,.48-2.28,.48-1.67,0-2.98-.52-3.94-1.57Zm6.49-5.65l.02-.48c0-2.84-.94-4.26-2.81-4.26-.99,0-1.75,.39-2.28,1.17-.54,.78-.84,1.97-.93,3.57h5.99Z"/><path class="g" d="M440.69,163.2c-.67-.54-1-1.3-1-2.27,0-2.46,2.37-3.94,7.1-4.44v-1.33c0-1.19-.19-2-.58-2.43-.38-.43-1.06-.65-2.03-.65-.43,0-.88,.08-1.33,.24-.45,.16-.83,.33-1.14,.5s-.51,.29-.59,.34l-.2-1.03c.08-.07,.3-.19,.64-.38,.34-.18,.78-.36,1.3-.53,.53-.17,1.06-.25,1.59-.25,1.44,0,2.49,.3,3.16,.9s1,1.66,1,3.18v6.14c0,.67,.06,1.12,.19,1.35s.28,.35,.46,.35c.15,0,.33-.03,.55-.09,.22-.06,.36-.1,.43-.14l.07,.85c-.13,.05-.42,.14-.85,.28-.43,.13-.8,.2-1.1,.2-.44,0-.77-.14-1-.41-.23-.28-.38-.76-.43-1.47h-.03c0,.07-.13,.26-.4,.58s-.66,.61-1.19,.89c-.53,.28-1.18,.41-1.97,.41-1.1,0-1.99-.27-2.66-.81Zm4.76-.69c.43-.27,.76-.56,.99-.88,.23-.32,.34-.5,.34-.55v-3.66c-1.52,.17-2.77,.49-3.75,.98-.98,.49-1.47,1.25-1.47,2.31,0,.72,.21,1.27,.63,1.64,.42,.38,.99,.56,1.7,.56,.6,0,1.12-.13,1.55-.4Z"/><path class="g" d="M452.72,163.76v-18.75l1.8-.1v18.85h-1.8Z"/><path class="g" d="M459.39,163.17c-.43-.56-.65-1.48-.65-2.77v-7.95h-1.3v-1.05l1.3-.15,.68-3.99h1.15v3.96h3.21v1.23h-3.21v7.5c0,1.09,.1,1.83,.31,2.24,.21,.41,.57,.61,1.09,.61,.42,0,.79-.04,1.13-.13,.33-.08,.5-.13,.5-.15l.13,1s-.14,.09-.31,.16c-.17,.08-.43,.15-.78,.21-.34,.07-.76,.1-1.24,.1-.9,0-1.57-.28-2.01-.84Z"/><path class="g" d="M466.46,145.01l1.83-.1v7.45h.03c.42-.45,.94-.79,1.55-1.03,.62-.23,1.3-.35,2.03-.35,1.22,0,2.16,.34,2.82,1.02s.99,1.68,.99,3.02v8.75h-1.8v-8.52c0-1.96-.87-2.93-2.61-2.93-.6,0-1.13,.09-1.58,.28-.45,.18-.8,.38-1.05,.6-.25,.22-.38,.34-.38,.38v10.2h-1.83v-18.75Z"/></g></svg>