<?xml version="1.0" encoding="utf-8"?>
<!-- Generator: Adobe Illustrator 26.2.1, SVG Export Plug-In . SVG Version: 6.00 Build 0)  -->
<svg version="1.1" id="Layer_1" xmlns="http://www.w3.org/2000/svg" xmlns:xlink="http://www.w3.org/1999/xlink" x="0px" y="0px"
	 viewBox="0 0 162 72" style="enable-background:new 0 0 162 72;" xml:space="preserve">
<style type="text/css">
	.st0{display:none;}
	.st1{display:inline;}
</style>
<image style="display:none;overflow:visible;enable-background:new    ;" width="300" height="64" xlink:href="ABF4A1F8CCA97638.png"  transform="matrix(1 0 0 1 12.9337 -2.5944)">
</image>
<g>
	<g>
		<path d="M21.4,58.9c-0.6-0.1-5.3,0-5.6,0c-0.6-4.8-1.2-10-2-15.6c-0.8-5.6-1.5-10.7-2.3-15.4c-0.5-3.3-1.4-8.4-2.5-15.3
			c0.8,0,11.2,0,11.4,0c0.2,4.7,0.8,10.3,1.6,16.7c0.7,5.6,1.5,11.2,2.2,16.8c3.1-4.9,5.4-8.5,6.9-11.1c2.3-3.7,4.5-7.4,6.7-11.2
			c1.9-3.3,4-7,6.3-11.2h5.9c-3.3,5-6.6,10.2-9.8,15.4c-3.3,5.2-6.5,10.3-9.5,15.2C27.5,48.6,24.4,53.8,21.4,58.9z"/>
		<path d="M58.6,12.8l22.2,0.1c6.5,0,11,2.3,13.5,6.8c2.2,3.9,2.6,9,1.2,15c-1.7,7.5-5.4,13.4-10.9,17.8c-5.3,4.2-11.4,6.3-18.3,6.3
			l-18.2-0.1L58.6,12.8z M67.4,16.7l-8.7,38.1h5.5c5,0,9-1.4,12.2-4.2c3.8-3.3,6.6-8.8,8.2-16.2c1.4-6.1,1.1-10.7-1-13.6
			c-1.9-2.8-5.2-4.2-10-4.2L67.4,16.7z"/>
		<path d="M100.5,59.2l10.6-46.2c0.7,0,9.6,0,9.8,0l-4.2,18.3c1.5,0,3.4,0.1,5.8,0.2c2.4,0.1,3.7,0.2,4.1,0.2c1.5,0,2.8,0,3.7-0.1
			c3.8-0.2,5.9-0.2,6.3-0.2l4.2-18.3c0.7,0,9.6,0,9.8,0l-10.6,46.2c-0.7,0-9.6,0-9.8,0l5.1-22.6c-1.5,0-2.8,0-3.7-0.1
			c-3.7-0.2-5.8-0.3-6.2-0.3c-1.5,0-3.5,0.1-5.9,0.2c-2.4,0.1-3.8,0.2-4.2,0.2l-5.1,22.6"/>
	</g>
	<polygon points="27,13.1 30.5,13.1 23.5,24.6 23.5,19.7 	"/>
	<polygon points="25,32 25,37.3 40,13.1 36.3,13.1 	"/>
	<polygon points="23.5,19.7 23.5,24.6 30.5,13.1 27,13.1 	"/>
	<g class="st0">
		<g class="st1">
			<path d="M158.5,24.6c-0.2,0-0.2,0-0.4-0.1c-0.1,0-0.2,0-0.3,0c-0.2,0-0.3,0-0.4,0s-0.2,0-0.2,0.1c-0.4-1.1-0.9-2.4-1.4-3.7
				c-0.5-1.4-1-2.6-1.5-3.7c-0.3-0.8-0.8-2-1.5-3.7c0.2,0,0.5,0,0.8,0.1c0.3,0,0.6,0.1,0.7,0.1c0.2,0,0.5,0,0.8-0.1
				c0.3,0,0.6-0.1,0.7-0.1c0.3,1.1,0.8,2.4,1.4,4c0.5,1.4,1,2.7,1.5,4.1c0.5-1.1,0.8-2,1.1-2.7c0.3-0.9,0.7-1.8,1.1-2.7
				c0.2-0.8,0.6-1.7,0.9-2.7l0.7,0.1l0.7-0.1c-0.6,1.2-1.1,2.4-1.6,3.7s-1.1,2.4-1.5,3.7C159.4,22.1,158.9,23.4,158.5,24.6z"/>
			<path d="M164.4,24.6V13.5c0.2,0,0.4,0,0.7,0.1s0.5,0,0.5,0c0.2,0,0.3,0,0.5,0c0.5-0.1,0.7-0.1,0.7-0.1v11.2c-0.2,0-0.3,0-0.5,0
				c-0.5-0.1-0.7-0.1-0.7-0.1c-0.2,0-0.4,0-0.7,0C164.6,24.6,164.5,24.6,164.4,24.6z"/>
			<path d="M169.2,24.6V13.5h3.5c0.7,0,1.3,0,1.6,0.1s0.7,0.1,1,0.2c1,0.5,1.4,1.3,1.4,2.4c0,0.7-0.2,1.4-0.7,2
				c-0.5,0.5-1.1,0.8-1.9,1c0.4,0.7,1,1.7,1.8,2.8c0.5,0.8,0.9,1.4,1.1,1.7l0.7,1c-0.2,0-0.5,0-0.8-0.1c-0.3,0-0.6,0-0.7,0
				c-0.2,0-0.5,0-0.8,0s-0.6,0.1-0.7,0.1l-2-3.4l-1.1-1.8h-0.1v5.2c-0.2,0-0.3,0-0.5,0c-0.5-0.1-0.7-0.1-0.7-0.1c-0.2,0-0.4,0-0.7,0
				C169.4,24.6,169.2,24.6,169.2,24.6z M171.6,14.4v4.3c0.1,0,0.2,0,0.2,0c0.1,0,0.2,0,0.2,0c1.4,0,2.1-0.8,2.1-2.4
				c0-0.2,0-0.6-0.1-0.8c-0.1-0.5-0.3-0.8-0.7-1.1c-0.2-0.1-0.7-0.2-1.2-0.2L171.6,14.4L171.6,14.4L171.6,14.4z"/>
			<path d="M189,19.6v4.5c-0.9,0.2-1.6,0.4-2.3,0.6c-0.7,0.2-1.4,0.2-2,0.2c-1.9,0-3.3-0.4-4.6-1.3c-1.3-1-2-2.4-2-4.2
				c0-2,0.7-3.5,2-4.6c1.2-1.1,2.8-1.5,4.8-1.5c0.7,0,1.4,0.1,2,0.2s1.3,0.4,1.9,0.7c-0.2,0.6-0.4,1.1-0.5,1.6h-0.2
				c-0.4-0.6-0.8-1-1.4-1.2c-0.6-0.3-1.1-0.4-1.8-0.4c-1.3,0-2.3,0.5-3,1.5c-0.7,1-1,2.2-1,3.7c0,1.4,0.3,2.5,1.1,3.3
				c0.7,0.8,1.6,1.2,2.8,1.2c0.4,0,0.7,0,1-0.1c0.2-0.1,0.5-0.2,0.8-0.3v-3.8c0.2,0,0.4,0,0.7,0.1c0.3,0,0.5,0,0.5,0
				c0.2,0,0.3,0,0.5,0C188.7,19.7,189,19.6,189,19.6z"/>
			<path d="M191.2,24.6V13.5c0.2,0,0.4,0,0.7,0.1s0.5,0,0.5,0c0.2,0,0.3,0,0.5,0c0.5-0.1,0.7-0.1,0.7-0.1v11.2c-0.2,0-0.3,0-0.5,0
				c-0.5-0.1-0.7-0.1-0.7-0.1c-0.2,0-0.4,0-0.7,0C191.4,24.6,191.2,24.6,191.2,24.6z"/>
			<path d="M196.1,24.6V13.5h1.6c0.7,0.8,1.5,1.6,2.4,2.5c0.5,0.5,1.2,1.3,2.4,2.5c1.1,1.2,1.9,2,2.3,2.5v-7.7l0.7,0.1l0.7-0.1v11.2
				h-1.4c-0.9-1.1-1.9-2-2.8-3.1c-1-1.1-1.9-2-2.8-2.9l-1.8-1.9v7.9L196.1,24.6z"/>
			<path d="M208.5,24.6V13.5c0.2,0,0.4,0,0.7,0.1c0.3,0,0.5,0,0.5,0c0.2,0,0.3,0,0.5,0c0.5-0.1,0.7-0.1,0.7-0.1v11.2
				c-0.2,0-0.3,0-0.5,0c-0.5-0.1-0.7-0.1-0.7-0.1c-0.2,0-0.4,0-0.7,0C208.7,24.6,208.6,24.6,208.5,24.6z"/>
			<path d="M218.8,21.2h-3.8c-0.3,1-0.6,1.7-0.7,2.2c-0.2,0.5-0.2,0.9-0.4,1.2l-0.7-0.1l-0.8,0.1l4.6-11.3l0.7,0.1l0.7-0.1l4.6,11.3
				c-0.2,0-0.5,0-0.8-0.1c-0.3,0-0.6,0-0.6,0c-0.2,0-0.5,0-0.8,0s-0.6,0.1-0.6,0.1c-0.2-0.7-0.4-1.4-0.6-1.7
				C219.1,22.3,218.9,21.7,218.8,21.2z M215.3,20.3h3l-1.5-3.8L215.3,20.3z"/>
		</g>
		<g class="st1">
			<path d="M150.8,30.4h5.5c1.6,0,2.8,0.6,3.7,1.6c0.7,1,1.1,2.1,1.1,3.6c0,1.8-0.6,3.3-1.7,4.3c-1.1,1.1-2.5,1.5-4.2,1.5h-4.5V30.4
				z M153.2,31.4v9.2h1.4c1.2,0,2.2-0.3,2.8-1.1c0.7-0.8,1.1-2.1,1.1-3.9c0-1.5-0.3-2.6-1-3.3c-0.7-0.7-1.5-1-2.8-1H153.2z"/>
			<path d="M162.4,30.4h6.2c0,0.1,0,0.2-0.1,0.4c0,0.2,0,0.2,0,0.3s0,0.2,0,0.3c0,0.2,0,0.2,0.1,0.3c-0.6-0.1-1.1-0.2-1.7-0.2
				s-1.3-0.1-2-0.1v3.5h1.7c0.4,0,0.7,0,1,0c0.2,0,0.6-0.1,1.1-0.1c0,0.1,0,0.2-0.1,0.4c0,0.2,0,0.2,0,0.3c0,0.1,0,0.2,0,0.3
				c0,0.2,0,0.2,0.1,0.3c-0.2,0-0.6-0.1-1-0.1s-0.7-0.1-1.1-0.1h-1.7v4.2c0.7,0,1.5,0,2-0.1s1.1-0.1,1.7-0.2c0,0.1,0,0.2-0.1,0.4
				c0,0.2,0,0.2,0,0.3c0,0.1,0,0.2,0,0.3c0,0.2,0,0.2,0.1,0.3h-6.2V30.4z"/>
			<path d="M172,36.7v4.9c-0.2,0-2.4,0-2.4,0V30.4h4c2.4,0,3.5,0.9,3.5,2.8c0,1.4-0.5,2.3-1.4,2.8C174.9,36.5,173.7,36.7,172,36.7z
				 M172,31.3v4.5c0.2,0,0.4,0,0.6,0s0.3-0.1,0.5-0.1c0.5-0.2,0.9-0.4,1.1-0.8s0.3-0.8,0.3-1.4c0-0.7-0.2-1.1-0.4-1.5
				c-0.3-0.4-0.7-0.6-1.1-0.6L172,31.3L172,31.3z"/>
			<path d="M183.3,38.2h-3.8c-0.3,1-0.6,1.7-0.7,2.2c-0.2,0.5-0.3,0.9-0.4,1.2l-0.7-0.1l-0.8,0.1l4.6-11.3l0.7,0.1l0.7-0.1l4.6,11.3
				c-0.2,0-0.5,0-0.8-0.1s-0.6,0-0.6,0c-0.2,0-0.5,0-0.8,0c-0.3,0-0.6,0.1-0.6,0.1c-0.2-0.7-0.4-1.4-0.6-1.7
				C183.6,39.2,183.4,38.7,183.3,38.2z M179.8,37.3h3l-1.5-3.8L179.8,37.3z"/>
			<path d="M187.7,41.7V30.4h3.5c0.7,0,1.3,0,1.6,0.1c0.3,0.1,0.7,0.1,1,0.2c1,0.5,1.4,1.3,1.4,2.4c0,0.7-0.2,1.4-0.7,2
				c-0.5,0.5-1.1,0.8-1.9,1c0.4,0.7,1,1.7,1.8,2.8c0.5,0.8,0.9,1.4,1.1,1.7l0.7,1c-0.2,0-0.5,0-0.8-0.1s-0.6,0-0.7,0
				c-0.2,0-0.5,0-0.8,0s-0.6,0.1-0.7,0.1l-2-3.4l-1.1-1.8h-0.1v5.2c-0.2,0-0.3,0-0.5,0c-0.5-0.1-0.7-0.1-0.7-0.1c-0.2,0-0.4,0-0.7,0
				C188,41.5,187.7,41.7,187.7,41.7z M190.2,31.3v4.4c0.1,0,0.2,0,0.2,0c0.1,0,0.2,0,0.2,0c1.4,0,2.1-0.8,2.1-2.4
				c0-0.2,0-0.6-0.1-0.8c-0.1-0.5-0.3-0.8-0.7-1.1c-0.2-0.1-0.7-0.2-1.2-0.2H190.2z"/>
			<path d="M201.3,31.6v10c-0.2,0-0.3,0-0.5,0c-0.5-0.1-0.7-0.1-0.7-0.1c-0.2,0-0.4,0-0.7,0s-0.5,0.1-0.5,0.1v-10
				c-0.6,0-1.1,0-1.5,0.1c-0.4,0-1,0.1-1.5,0.2c0-0.2,0-0.3,0.1-0.4c0-0.1,0-0.2,0-0.3c0-0.2,0-0.3,0-0.4c0-0.1,0-0.2-0.1-0.3h8.4
				c0,0.2,0,0.3-0.1,0.4c0,0.1,0,0.2,0,0.3c0,0.2,0,0.3,0,0.4c0,0.1,0,0.2,0.1,0.3c-0.8-0.1-1.3-0.2-1.5-0.2
				C202.3,31.6,201.8,31.6,201.3,31.6z"/>
			<path d="M211,38.1c0.5-0.9,0.9-1.7,1.2-2.4c0.4-0.9,0.9-1.7,1.3-2.5c0.6-1.2,1-2.1,1.3-2.7c0.2,0,1.2,0.1,1.3,0
				c0.2,1.4,0.3,2.8,0.5,4.2c0.2,2.1,0.4,3.3,0.4,3.7c0.2,1,0.3,2.1,0.5,3.3c-0.2,0-2.6,0-2.7,0c0-1.1-0.1-2.2-0.2-3.6
				c-0.2-1.4-0.3-2.7-0.5-4c-0.4,0.8-0.8,1.7-1.2,2.5c-0.4,0.8-0.8,1.6-1.2,2.4c-0.2,0.6-0.7,1.4-1.1,2.5c-0.2,0-0.3,0-0.4,0
				c-0.1,0-0.1,0-0.2,0c-0.4-0.8-0.7-1.5-1.1-2.4c-0.5-1-0.9-1.8-1.2-2.4c-0.4-0.8-0.8-1.7-1.2-2.5c-0.2,1.2-0.2,2.1-0.3,2.7
				c-0.1,0.9-0.2,1.7-0.2,2.5c-0.1,0.8-0.1,1.5-0.1,2.2c-0.2,0-1.4-0.1-1.5,0c0.2-1.1,0.4-2.2,0.6-3.4c0.1-0.7,0.2-1.9,0.5-3.7
				c0.2-1.8,0.4-3.1,0.6-4.1c0.2,0,1.3,0.1,1.4,0c0.2,0.6,0.7,1.5,1.2,2.5c0.4,0.8,0.8,1.7,1.2,2.5C210.1,36.4,210.6,37.3,211,38.1z
				"/>
			<path d="M218.6,30.4h6.2c0,0.1,0,0.2-0.1,0.4c0,0.2,0,0.2,0,0.3s0,0.2,0,0.3c0,0.2,0,0.2,0.1,0.3c-0.6-0.1-1.1-0.2-1.7-0.2
				s-1.3-0.1-2-0.1v3.5h1.7c0.4,0,0.7,0,1,0c0.2,0,0.6-0.1,1.1-0.1c0,0.1,0,0.2-0.1,0.4c0,0.2,0,0.2,0,0.3c0,0.1,0,0.2,0,0.3
				c0,0.2,0,0.2,0.1,0.3c-0.2,0-0.6-0.1-1-0.1s-0.7-0.1-1.1-0.1H221v4.2c0.7,0,1.5,0,2-0.1s1.1-0.1,1.7-0.2c0,0.1,0,0.2-0.1,0.4
				c0,0.2,0,0.2,0,0.3c0,0.1,0,0.2,0,0.3c0,0.2,0,0.2,0.1,0.3h-6.2V30.4z"/>
			<path d="M225.9,41.6V30.4h1.6c0.7,0.8,1.5,1.6,2.4,2.5c0.5,0.5,1.2,1.3,2.4,2.5c1.1,1.2,1.9,2,2.3,2.5v-7.7l0.7,0.1l0.7-0.1v11.2
				h-1.4c-0.9-1.1-1.9-2-2.8-3.1c-1-1.1-1.9-2-2.8-2.9l-1.8-1.9v7.9l-0.7-0.1L225.9,41.6z"/>
			<path d="M242.1,31.6v10c-0.2,0-0.3,0-0.5,0c-0.5-0.1-0.7-0.1-0.7-0.1c-0.2,0-0.4,0-0.7,0s-0.5,0.1-0.5,0.1v-10
				c-0.6,0-1.1,0-1.5,0.1c-0.4,0.1-1,0.1-1.5,0.2c0-0.2,0-0.3,0.1-0.4c0-0.1,0-0.2,0-0.3c0-0.2,0-0.3,0-0.4c0-0.1,0-0.2-0.1-0.3h8.4
				c0,0.2,0,0.3-0.1,0.4c0,0.1,0,0.2,0,0.3c0,0.2,0,0.3,0,0.4c0,0.1,0,0.2,0.1,0.3c-0.8-0.1-1.3-0.2-1.5-0.2
				C243.1,31.6,242.6,31.6,242.1,31.6z"/>
		</g>
		<g class="st1">
			<path d="M170.2,59.2V48.1c0.2,0,0.4,0,0.7,0.1c0.3,0,0.5,0,0.5,0c0.2,0,0.3,0,0.5,0c0.5-0.1,0.7-0.1,0.7-0.1v4.4
				c0.4,0,0.9,0,1.5,0.1s1,0,1.1,0c0.4,0,0.7,0,0.9,0c1-0.1,1.5-0.1,1.5-0.1v-4.4c0.2,0,0.4,0,0.7,0.1c0.3,0,0.5,0,0.5,0
				c0.2,0,0.3,0,0.5,0c0.5-0.1,0.7-0.1,0.7-0.1v11.2c-0.2,0-0.3,0-0.5,0c-0.5-0.1-0.7-0.1-0.7-0.1c-0.2,0-0.4,0-0.7,0
				c-0.3,0-0.5,0.1-0.5,0.1v-5.5c-0.4,0-0.7,0-0.9,0c-1-0.1-1.5-0.1-1.5-0.1c-0.4,0-0.9,0-1.5,0.1c-0.6,0-1,0-1.1,0v5.5
				c-0.2,0-0.3,0-0.5,0c-0.5-0.1-0.7-0.1-0.7-0.1c-0.2,0-0.4,0-0.7,0C170.5,59.2,170.3,59.2,170.2,59.2z"/>
			<path d="M181.4,48.1h6.2c0,0.1,0,0.2-0.1,0.4c0,0.2,0,0.2,0,0.3c0,0.1,0,0.2,0,0.3s0,0.2,0.1,0.3c-0.6-0.1-1.1-0.2-1.7-0.2
				c-0.6,0-1.3-0.1-2-0.1v3.5h1.7c0.4,0,0.7,0,1,0s0.6-0.1,1.1-0.1c0,0.1,0,0.2-0.1,0.4c0,0.2,0,0.2,0,0.3c0,0.1,0,0.2,0,0.3
				s0,0.2,0.1,0.3c-0.2,0-0.6-0.1-1-0.1c-0.4,0-0.7-0.1-1.1-0.1h-1.7V58c0.7,0,1.5,0,2-0.1c0.6-0.1,1.1-0.1,1.7-0.2
				c0,0.1,0,0.2-0.1,0.4c0,0.2,0,0.2,0,0.3c0,0.1,0,0.2,0,0.3c0,0.2,0,0.2,0.1,0.3h-6.2V48.1z"/>
			<path d="M194.4,55.8h-3.8c-0.3,1-0.6,1.7-0.7,2.2s-0.2,0.9-0.4,1.2l-0.7-0.1l-0.8,0.1l4.6-11.3h1.3l4.6,11.3
				c-0.2,0-0.5,0-0.8-0.1c-0.3,0-0.6,0-0.6,0c-0.2,0-0.5,0-0.8,0s-0.6,0.1-0.6,0.1c-0.2-0.7-0.4-1.4-0.6-1.7
				C194.8,56.9,194.6,56.3,194.4,55.8z M191.1,54.8h3l-1.5-3.8L191.1,54.8z"/>
			<path d="M201.7,48.1V58c0.7,0,1.3,0,1.8-0.1c0.5-0.1,1.1-0.1,2-0.2c0,0.1-0.1,0.2-0.1,0.4c0,0.2,0,0.2,0,0.3s0,0.2,0,0.3
				c0,0.2,0,0.2,0.1,0.3h-6.2V48.1C199.5,48.1,201.7,48.1,201.7,48.1z"/>
			<path d="M210.5,49.2v10c-0.2,0-0.3,0-0.5,0c-0.5-0.1-0.7-0.1-0.7-0.1c-0.2,0-0.4,0-0.7,0s-0.5,0.1-0.5,0.1v-10
				c-0.6,0-1.1,0-1.5,0.1c-0.4,0-1,0.1-1.5,0.2c0-0.2,0-0.2,0.1-0.4c0-0.1,0-0.2,0-0.3c0-0.2,0-0.3,0-0.4s0-0.2-0.1-0.3h8.4
				c0,0.2,0,0.3-0.1,0.4c0,0.1,0,0.2,0,0.3c0,0.2,0,0.3,0,0.4s0,0.2,0.1,0.2c-0.8-0.1-1.3-0.2-1.5-0.2
				C211.6,49.2,211,49.2,210.5,49.2z"/>
			<path d="M213.9,59.2V48.1c0.2,0,0.4,0,0.7,0.1c0.3,0,0.5,0,0.5,0c0.2,0,0.3,0,0.5,0c0.5-0.1,0.7-0.1,0.7-0.1v4.4
				c0.4,0,0.9,0,1.5,0.1c0.6,0.1,1,0,1.1,0c0.4,0,0.7,0,0.9,0c1-0.1,1.5-0.1,1.5-0.1v-4.4c0.2,0,0.4,0,0.7,0.1s0.5,0,0.5,0
				c0.2,0,0.3,0,0.5,0c0.5-0.1,0.7-0.1,0.7-0.1v11.2c-0.2,0-0.3,0-0.5,0c-0.5-0.1-0.7-0.1-0.7-0.1c-0.2,0-0.4,0-0.7,0
				s-0.5,0.1-0.5,0.1v-5.5c-0.4,0-0.7,0-0.9,0c-1-0.1-1.5-0.1-1.5-0.1c-0.4,0-0.9,0-1.5,0.1c-0.6,0.1-1,0-1.1,0v5.5
				c-0.2,0-0.3,0-0.5,0c-0.5-0.1-0.7-0.1-0.7-0.1c-0.2,0-0.4,0-0.7,0S213.9,59.2,213.9,59.2z"/>
		</g>
		<g class="st1">
			<path d="M158.7,53.5c0,1.6-0.6,3-1.7,4.2c-1.2,1.1-2.8,1.7-4.7,1.7c-1.9,0-3.3-0.5-4.4-1.5c-1.1-1.1-1.6-2.4-1.6-4.3
				c0-1.7,0.6-3.1,1.7-4.2c1.1-1.1,2.8-1.7,4.7-1.7c2.1,0,3.7,0.7,4.7,2C158.3,50.8,158.7,52.1,158.7,53.5z M152.6,48.7
				c-1.1,0-2,0.4-2.7,1.3c-0.7,0.9-1,2.3-1,4.1c0,1.2,0.2,2.2,0.8,3c0.6,0.9,1.5,1.4,2.6,1.4c1.2,0,2.1-0.5,2.8-1.5
				c0.6-1,0.9-2.2,0.9-3.7c0-1.2-0.2-2.2-0.8-3C154.6,49.2,153.7,48.7,152.6,48.7z"/>
			<path d="M161.7,53.9v5.4c-0.2,0-0.3,0-0.5,0c-0.5-0.1-0.7-0.1-0.7-0.1c-0.2,0-0.4,0-0.7,0c-0.3,0-0.5,0-0.5,0V48.1h6.2
				c0,0.1-0.1,0.2-0.1,0.4c0,0.2,0,0.2,0,0.3c0,0.1,0,0.2,0,0.3s0,0.2,0.1,0.3c-0.7-0.1-1.3-0.2-1.8-0.2c-0.5,0-1.1-0.1-2-0.1v3.5
				h1.7c0.4,0,0.7,0,0.8,0s0.6-0.1,1.1-0.2c0,0.1-0.1,0.2-0.1,0.4c0,0.2,0,0.2,0,0.3s0,0.2,0,0.3c0,0.2,0,0.2,0.1,0.3
				c-0.3,0-0.7-0.1-1.1-0.1c-0.4,0-0.7-0.1-1-0.1L161.7,53.9L161.7,53.9z"/>
		</g>
	</g>
</g>
</svg>
